<?xml version="1.0" encoding="UTF-8"?>
<!DOCTYPE svg PUBLIC "-//W3C//DTD SVG 1.1//EN" "http://www.w3.org/Graphics/SVG/1.1/DTD/svg11.dtd">
<svg xmlns="http://www.w3.org/2000/svg" version="1.1" width="300px" height="300px" style="shape-rendering:geometricPrecision; text-rendering:geometricPrecision; image-rendering:optimizeQuality; fill-rule:evenodd; clip-rule:evenodd" xmlns:xlink="http://www.w3.org/1999/xlink">
<g><path style="opacity:1" fill="#010101" d="M -0.5,-0.5 C 99.5,-0.5 199.5,-0.5 299.5,-0.5C 299.5,99.5 299.5,199.5 299.5,299.5C 199.5,299.5 99.5,299.5 -0.5,299.5C -0.5,199.5 -0.5,99.5 -0.5,-0.5 Z"/></g>
<g><path style="opacity:1" fill="#efefef" d="M 117.5,35.5 C 124.849,34.1884 127.683,37.1884 126,44.5C 125.727,46.3289 124.893,47.8289 123.5,49C 115.566,51.3973 112.399,48.5639 114,40.5C 114.997,38.6769 116.164,37.0103 117.5,35.5 Z"/></g>
<g><path style="opacity:1" fill="#f2f2f2" d="M 246.5,35.5 C 248.388,37.9878 249.055,40.9878 248.5,44.5C 243.821,44.3342 239.155,44.5008 234.5,45C 227.982,49.4487 226.982,54.782 231.5,61C 234.167,61.6667 236.833,61.6667 239.5,61C 242.494,59.3293 245.494,57.996 248.5,57C 249.451,60.0567 249.784,63.2234 249.5,66.5C 244.966,66.267 240.632,67.1003 236.5,69C 230.622,70.6532 225.788,69.1532 222,64.5C 220.877,61.7513 219.377,59.2513 217.5,57C 219.761,54.2284 221.261,51.0618 222,47.5C 228.177,39.3279 236.343,35.3279 246.5,35.5 Z"/></g>
<g><path style="opacity:1" fill="#f1f1f1" d="M 109.5,36.5 C 110.5,36.5 111.5,36.5 112.5,36.5C 112.5,38.1667 112.5,39.8333 112.5,41.5C 111.5,41.5 110.5,41.5 109.5,41.5C 109.5,44.8333 109.5,48.1667 109.5,51.5C 107.833,51.5 106.167,51.5 104.5,51.5C 104.372,47.0437 103.872,42.7104 103,38.5C 104.458,37.2532 105.958,37.2532 107.5,38.5C 108.522,38.1445 109.189,37.4778 109.5,36.5 Z"/></g>
<g><path style="opacity:1" fill="#ececec" d="M 94.5,39.5 C 99.894,38.7284 101.894,41.0617 100.5,46.5C 100.167,48.5 99.8333,50.5 99.5,52.5C 98.8333,52.8333 98.1667,53.1667 97.5,53.5C 95.6749,41.7503 94.6749,42.0837 94.5,54.5C 92.8333,54.5 91.1667,54.5 89.5,54.5C 89.8134,51.7531 89.48,49.0865 88.5,46.5C 87.513,49.7683 87.1796,53.1016 87.5,56.5C 86.0695,56.4208 84.7362,56.7542 83.5,57.5C 82.3008,52.875 81.8008,48.2083 82,43.5C 83.3333,42.1667 84.6667,42.1667 86,43.5C 87.7981,41.1633 89.9647,40.4967 92.5,41.5C 93.5223,41.1445 94.189,40.4778 94.5,39.5 Z"/></g>
<g><path style="opacity:1" fill="#0e0e0e" d="M 118.5,40.5 C 119.5,40.5 120.5,40.5 121.5,40.5C 121.5,41.8333 121.5,43.1667 121.5,44.5C 120.5,44.5 119.5,44.5 118.5,44.5C 118.5,43.1667 118.5,41.8333 118.5,40.5 Z"/></g>
<g><path style="opacity:1" fill="#f5f5f5" d="M 213.5,41.5 C 217.157,41.974 217.324,43.3074 214,45.5C 213.024,49.9181 213.524,54.0848 215.5,58C 213.546,61.5767 213.046,65.41 214,69.5C 214.925,70.0465 215.758,70.7132 216.5,71.5C 212.289,73.2008 207.955,74.0341 203.5,74C 205.949,72.1367 206.949,69.6367 206.5,66.5C 206.271,64.1756 205.604,62.0089 204.5,60C 207.487,54.6361 207.154,49.6361 203.5,45C 206.803,43.5168 210.136,42.3501 213.5,41.5 Z"/></g>
<g><path style="opacity:1" fill="#fafafa" d="M 65.5,44.5 C 65.5,50.5 65.5,56.5 65.5,62.5C 64.2196,63.9313 62.5529,64.5979 60.5,64.5C 60.7989,62.396 60.4656,60.396 59.5,58.5C 58.8333,58.8333 58.1667,59.1667 57.5,59.5C 56.6858,61.7662 56.1858,64.0995 56,66.5C 55.3292,67.2524 54.4959,67.5858 53.5,67.5C 51.5467,61.9262 50.88,55.9262 51.5,49.5C 52.7804,48.0687 54.4471,47.4021 56.5,47.5C 56.5,49.5 56.5,51.5 56.5,53.5C 57.8221,53.67 58.9887,53.3366 60,52.5C 60.3333,50.1667 60.6667,47.8333 61,45.5C 62.3333,44.8333 63.6667,44.1667 65,43.5C 65.3988,43.7284 65.5654,44.0618 65.5,44.5 Z"/></g>
<g><path style="opacity:1" fill="#3f3f3f" d="M 65.5,44.5 C 66.1667,48.8333 66.8333,53.1667 67.5,57.5C 67.5,57.8333 67.5,58.1667 67.5,58.5C 66.8333,59.8333 66.1667,61.1667 65.5,62.5C 65.5,56.5 65.5,50.5 65.5,44.5 Z"/></g>
<g><path style="opacity:1" fill="#f3f3f3" d="M 192.5,45.5 C 199.023,44.8195 201.69,47.8195 200.5,54.5C 195.491,53.3301 190.491,53.4968 185.5,55C 184.62,56.3561 184.286,57.8561 184.5,59.5C 188.316,59.9794 191.65,58.9794 194.5,56.5C 195.833,60.5 195.833,64.5 194.5,68.5C 186.601,64.3676 183.435,66.7009 185,75.5C 185.75,76.1258 186.584,76.6258 187.5,77C 183.804,78.4118 179.971,79.5785 176,80.5C 175.5,80.1667 175,79.8333 174.5,79.5C 177.456,74.511 177.123,69.8444 173.5,65.5C 177.128,60.8148 177.462,55.8148 174.5,50.5C 180.631,49.0152 186.631,47.3485 192.5,45.5 Z"/></g>
<g><path style="opacity:1" fill="#ededed" d="M 67.5,58.5 C 67.5,58.1667 67.5,57.8333 67.5,57.5C 67.9106,53.9209 69.9106,51.7542 73.5,51C 72.2161,50.3162 71.0495,50.4829 70,51.5C 69.5908,47.7316 71.4241,45.7316 75.5,45.5C 76.4419,45.6082 77.2753,45.9415 78,46.5C 78.2609,49.6632 79.0943,52.6632 80.5,55.5C 80.0367,58.5071 78.5367,59.5071 76,58.5C 73.9973,60.9221 71.4973,61.7554 68.5,61C 67.7476,60.3292 67.4142,59.4959 67.5,58.5 Z"/></g>
<g><path style="opacity:1" fill="#444444" d="M 51.5,49.5 C 50.88,55.9262 51.5467,61.9262 53.5,67.5C 52.791,68.404 51.791,68.7373 50.5,68.5C 50.1765,61.9779 50.5098,55.6446 51.5,49.5 Z"/></g>
<g><path style="opacity:1" fill="#f4f4f4" d="M 162.5,51.5 C 169.507,50.4806 172.174,53.4806 170.5,60.5C 165.535,59.7397 160.535,59.9064 155.5,61C 154.62,62.3561 154.286,63.8561 154.5,65.5C 158.316,65.9794 161.65,64.9794 164.5,62.5C 165.833,66.5 165.833,70.5 164.5,74.5C 161.422,72.2331 158.089,71.8997 154.5,73.5C 153.814,77.287 154.814,80.4537 157.5,83C 153.749,84.2169 149.916,85.3836 146,86.5C 145.5,86.1667 145,85.8333 144.5,85.5C 148.466,80.6114 148.466,75.7781 144.5,71C 147.136,66.1527 147.136,61.3194 144.5,56.5C 150.615,55.1222 156.615,53.4556 162.5,51.5 Z"/></g>
<g><path style="opacity:1" fill="#8b8b8b" d="M 72.5,53.5 C 74.0481,53.8212 74.7148,54.8212 74.5,56.5C 71.7524,56.5983 71.0857,55.5983 72.5,53.5 Z"/></g>
<g><path style="opacity:1" fill="#f5f5f5" d="M 124.5,59.5 C 126.199,59.3398 127.866,59.5065 129.5,60C 127.789,61.1332 127.289,62.6332 128,64.5C 129.311,68.1395 131.645,70.8062 135,72.5C 135.14,74.2555 134.64,75.9222 133.5,77.5C 134.756,81.0163 136.756,84.0163 139.5,86.5C 135.673,88.3034 131.673,89.1367 127.5,89C 128.337,87.9887 128.67,86.8221 128.5,85.5C 124.837,85.9518 121.17,86.4518 117.5,87C 115.246,88.0539 114.913,89.5539 116.5,91.5C 112.922,92.8187 109.256,93.8187 105.5,94.5C 105.167,94.1667 104.833,93.8333 104.5,93.5C 107.062,89.8334 109.062,85.8334 110.5,81.5C 109.833,80.5 109.167,79.5 108.5,78.5C 112.353,75.8088 114.853,72.1422 116,67.5C 116.651,65.765 116.485,64.0983 115.5,62.5C 118.505,61.1823 121.505,60.1823 124.5,59.5 Z"/></g>
<g><path style="opacity:1" fill="#f4f4f4" d="M 86.5,66.5 C 97.678,65.2008 101.511,69.8675 98,80.5C 97.0267,82.64 95.5267,84.3067 93.5,85.5C 95.3745,89.0851 98.0412,91.9185 101.5,94C 98.0313,95.634 94.3646,96.3007 90.5,96C 88.7654,92.9159 86.7654,90.0825 84.5,87.5C 83.0304,91.0677 83.3637,94.401 85.5,97.5C 82.1006,98.2885 78.7672,99.2885 75.5,100.5C 75.458,95.9545 75.2913,91.2879 75,86.5C 74.5,86 74,85.5 73.5,85C 76.1394,80.1342 76.1394,75.3009 73.5,70.5C 77.9294,69.1674 82.2628,67.834 86.5,66.5 Z"/></g>
<g><path style="opacity:1" fill="#f4f4f4" d="M 61.5,71.5 C 64.1667,71.5 66.8333,71.5 69.5,71.5C 70.2631,74.1411 70.4298,76.8078 70,79.5C 67.1068,79.3174 64.1068,79.6507 61,80.5C 60.2873,83.4746 61.1207,85.9746 63.5,88C 59.9852,92.2801 59.6518,96.7801 62.5,101.5C 62.2907,102.086 61.9574,102.586 61.5,103C 57.8484,103.889 54.1817,104.222 50.5,104C 54.4613,99.4639 54.4613,94.9639 50.5,90.5C 52.1298,87.7239 52.7965,84.7239 52.5,81.5C 48.9746,81.3459 46.1413,82.6792 44,85.5C 43.3333,82.8333 43.3333,80.1667 44,77.5C 44.9025,76.2986 46.0692,75.4652 47.5,75C 52.4997,74.6363 57.1664,73.4697 61.5,71.5 Z"/></g>
<g><path style="opacity:1" fill="#21201d" d="M 121.5,70.5 C 122.376,70.3691 123.043,70.7025 123.5,71.5C 124.167,73.5 124.833,75.5 125.5,77.5C 123.51,78.8732 121.343,79.8732 119,80.5C 119.897,77.2842 120.731,73.9509 121.5,70.5 Z"/></g>
<g><path style="opacity:1" fill="#151410" d="M 86.5,73.5 C 90.6772,72.8416 92.1772,74.5082 91,78.5C 88.876,79.2272 86.7094,79.8938 84.5,80.5C 82.9112,77.4116 83.5779,75.0783 86.5,73.5 Z"/></g>
<g><path style="opacity:1" fill="#174821" d="M 164.5,183.5 C 172.765,176.082 177.432,166.749 178.5,155.5C 179.674,153.559 181.341,152.059 183.5,151C 205.052,140.474 224.219,126.64 241,109.5C 244.163,105.844 246.829,101.844 249,97.5C 251.128,103.683 250.461,109.683 247,115.5C 241.793,122.375 235.626,128.208 228.5,133C 214.912,142.235 200.579,150.235 185.5,157C 181.501,175.167 170.834,187.667 153.5,194.5C 152.417,193.635 152.251,192.635 153,191.5C 157.477,189.685 161.31,187.018 164.5,183.5 Z"/></g>
<g><path style="opacity:1" fill="#96aa9a" d="M 190.5,111.5 C 187.965,110.651 185.465,109.651 183,108.5C 182.5,108.667 182,108.833 181.5,109C 183.007,109.837 183.507,111.004 183,112.5C 181.615,111.449 180.615,110.116 180,108.5C 178.991,110.025 178.491,111.692 178.5,113.5C 178.245,115.967 177.245,117.967 175.5,119.5C 176.167,117.167 176.833,114.833 177.5,112.5C 177.833,110.5 178.167,108.5 178.5,106.5C 174.644,106.029 170.811,105.362 167,104.5C 165.129,104.709 163.962,105.709 163.5,107.5C 165.444,108.801 167.444,109.801 169.5,110.5C 167.158,111.008 164.991,112.008 163,113.5C 162.722,112.584 162.222,111.918 161.5,111.5C 161.209,110.351 160.376,109.684 159,109.5C 158.167,109.833 157.333,110.167 156.5,110.5C 157.615,111.598 157.615,112.765 156.5,114C 157.686,115.412 159.019,116.579 160.5,117.5C 158.095,117.134 155.762,116.467 153.5,115.5C 151.279,115.439 150.946,116.105 152.5,117.5C 153.5,118.833 154.5,120.167 155.5,121.5C 152.325,119.87 148.991,118.37 145.5,117C 146.416,116.722 147.082,116.222 147.5,115.5C 148.833,114.833 150.167,114.167 151.5,113.5C 152.575,114.562 153.575,114.562 154.5,113.5C 155.167,110.167 155.833,106.833 156.5,103.5C 164.651,102.467 172.651,103.3 180.5,106C 184.346,107.086 187.68,108.919 190.5,111.5 Z"/></g>
<g><path style="opacity:1" fill="#a4b4a7" d="M 137.5,113.5 C 135.74,115.559 133.406,116.892 130.5,117.5C 129.432,116.566 128.099,116.232 126.5,116.5C 128.598,115.065 130.931,113.898 133.5,113C 133.957,112.586 134.291,112.086 134.5,111.5C 129.306,109.942 129.306,108.942 134.5,108.5C 134.763,105.266 133.263,103.932 130,104.5C 126.406,104.903 122.906,105.57 119.5,106.5C 117.741,106.046 115.741,106.046 113.5,106.5C 113.604,108.703 114.27,110.703 115.5,112.5C 114.833,112.833 114.167,113.167 113.5,113.5C 113.668,108.675 111.668,107.008 107.5,108.5C 116.195,103.928 125.528,102.095 135.5,103C 136.203,106.496 136.87,109.996 137.5,113.5 Z"/></g>
<g><path style="opacity:1" fill="#13461e" d="M 157.5,103.5 C 159.604,103.201 161.604,103.534 163.5,104.5C 161.869,107.375 159.536,108.042 156.5,106.5C 157.127,105.583 157.461,104.583 157.5,103.5 Z"/></g>
<g><path style="opacity:1" fill="#164821" d="M 177.5,112.5 C 174.833,111.833 172.167,111.167 169.5,110.5C 167.444,109.801 165.444,108.801 163.5,107.5C 163.962,105.709 165.129,104.709 167,104.5C 170.811,105.362 174.644,106.029 178.5,106.5C 178.167,108.5 177.833,110.5 177.5,112.5 Z"/></g>
<g><path style="opacity:1" fill="#1b4b25" d="M 119.5,106.5 C 119.557,107.609 119.89,108.609 120.5,109.5C 119.41,110.857 118.076,111.857 116.5,112.5C 116.167,112.5 115.833,112.5 115.5,112.5C 114.27,110.703 113.604,108.703 113.5,106.5C 115.741,106.046 117.741,106.046 119.5,106.5 Z"/></g>
<g><path style="opacity:1" fill="#1c4c26" d="M 190.5,111.5 C 190.611,112.117 190.944,112.617 191.5,113C 189.24,113.549 187.574,114.716 186.5,116.5C 183.828,115.499 181.162,114.499 178.5,113.5C 178.491,111.692 178.991,110.025 180,108.5C 180.615,110.116 181.615,111.449 183,112.5C 183.507,111.004 183.007,109.837 181.5,109C 182,108.833 182.5,108.667 183,108.5C 185.465,109.651 187.965,110.651 190.5,111.5 Z"/></g>
<g><path style="opacity:1" fill="#2d5834" d="M 113.5,113.5 C 110.738,114.38 108.071,115.546 105.5,117C 108.589,116.615 111.589,115.948 114.5,115C 113.195,117.787 111.528,120.287 109.5,122.5C 106.892,122.6 104.558,121.933 102.5,120.5C 103.66,118.797 102.993,118.131 100.5,118.5C 98.9365,115.868 99.2699,113.535 101.5,111.5C 103.03,109.654 105.03,108.654 107.5,108.5C 111.668,107.008 113.668,108.675 113.5,113.5 Z"/></g>
<g><path style="opacity:1" fill="#f2f3f3" d="M 126.5,116.5 C 123.833,117.167 121.167,117.833 118.5,118.5C 117.699,116.958 117.366,115.292 117.5,113.5C 121.57,112.644 125.57,111.477 129.5,110C 126.428,110.364 123.428,110.198 120.5,109.5C 119.89,108.609 119.557,107.609 119.5,106.5C 122.906,105.57 126.406,104.903 130,104.5C 133.263,103.932 134.763,105.266 134.5,108.5C 129.306,108.942 129.306,109.942 134.5,111.5C 134.291,112.086 133.957,112.586 133.5,113C 130.931,113.898 128.598,115.065 126.5,116.5 Z"/></g>
<g><path style="opacity:1" fill="#89a18e" d="M 120.5,109.5 C 123.428,110.198 126.428,110.364 129.5,110C 125.57,111.477 121.57,112.644 117.5,113.5C 117.366,115.292 117.699,116.958 118.5,118.5C 116.032,117.097 115.366,115.097 116.5,112.5C 118.076,111.857 119.41,110.857 120.5,109.5 Z"/></g>
<g><path style="opacity:1" fill="#e9ecea" d="M 169.5,110.5 C 172.167,111.167 174.833,111.833 177.5,112.5C 176.833,114.833 176.167,117.167 175.5,119.5C 169.644,117.908 163.977,115.742 158.5,113C 159.737,112.768 160.737,112.268 161.5,111.5C 162.222,111.918 162.722,112.584 163,113.5C 164.991,112.008 167.158,111.008 169.5,110.5 Z"/></g>
<g><path style="opacity:1" fill="#afbeb2" d="M 190.5,111.5 C 192.674,111.75 194.341,112.75 195.5,114.5C 194.847,115.807 194.18,117.14 193.5,118.5C 194.867,119.84 196.2,121.173 197.5,122.5C 193.063,119.219 190.063,120.219 188.5,125.5C 187.508,125.672 186.842,125.338 186.5,124.5C 187.625,122.871 188.959,121.371 190.5,120C 189.269,118.595 187.936,117.429 186.5,116.5C 187.574,114.716 189.24,113.549 191.5,113C 190.944,112.617 190.611,112.117 190.5,111.5 Z"/></g>
<g><path style="opacity:1" fill="#c2cdc4" d="M 138.5,113.5 C 142.833,113.5 147.167,113.5 151.5,113.5C 150.167,114.167 148.833,114.833 147.5,115.5C 144.794,115.575 142.127,115.908 139.5,116.5C 139.918,115.778 140.584,115.278 141.5,115C 140.263,114.768 139.263,114.268 138.5,113.5 Z"/></g>
<g><path style="opacity:1" fill="#22502b" d="M 161.5,111.5 C 160.737,112.268 159.737,112.768 158.5,113C 163.977,115.742 169.644,117.908 175.5,119.5C 178.836,121.731 182.503,123.397 186.5,124.5C 186.842,125.338 187.508,125.672 188.5,125.5C 190.512,126.228 192.512,127.062 194.5,128C 195.252,128.671 195.586,129.504 195.5,130.5C 191.752,129.793 188.086,128.793 184.5,127.5C 176.787,123.648 168.787,120.315 160.5,117.5C 159.019,116.579 157.686,115.412 156.5,114C 157.615,112.765 157.615,111.598 156.5,110.5C 157.333,110.167 158.167,109.833 159,109.5C 160.376,109.684 161.209,110.351 161.5,111.5 Z"/></g>
<g><path style="opacity:1" fill="#a8b7ab" d="M 101.5,111.5 C 99.2699,113.535 98.9365,115.868 100.5,118.5C 99.0337,117.653 98.2004,116.32 98,114.5C 97.3292,115.252 96.4959,115.586 95.5,115.5C 97.1475,113.674 99.1475,112.34 101.5,111.5 Z"/></g>
<g><path style="opacity:1" fill="#ebeeec" d="M 178.5,113.5 C 181.162,114.499 183.828,115.499 186.5,116.5C 187.936,117.429 189.269,118.595 190.5,120C 188.959,121.371 187.625,122.871 186.5,124.5C 182.503,123.397 178.836,121.731 175.5,119.5C 177.245,117.967 178.245,115.967 178.5,113.5 Z"/></g>
<g><path style="opacity:1" fill="#164821" d="M 100.5,118.5 C 99.1667,119.833 97.8333,121.167 96.5,122.5C 92.8351,124.511 90.8351,123.511 90.5,119.5C 92.7488,118.92 94.4154,117.587 95.5,115.5C 96.4959,115.586 97.3292,115.252 98,114.5C 98.2004,116.32 99.0337,117.653 100.5,118.5 Z"/></g>
<g><path style="opacity:1" fill="#d9dfda" d="M 115.5,112.5 C 115.833,112.5 116.167,112.5 116.5,112.5C 115.366,115.097 116.032,117.097 118.5,118.5C 117.167,119.5 115.833,120.5 114.5,121.5C 112.784,121.629 111.117,121.962 109.5,122.5C 111.528,120.287 113.195,117.787 114.5,115C 111.589,115.948 108.589,116.615 105.5,117C 108.071,115.546 110.738,114.38 113.5,113.5C 114.167,113.167 114.833,112.833 115.5,112.5 Z"/></g>
<g><path style="opacity:1" fill="#26532e" d="M 137.5,113.5 C 137.833,113.5 138.167,113.5 138.5,113.5C 139.263,114.268 140.263,114.768 141.5,115C 140.584,115.278 139.918,115.778 139.5,116.5C 136.054,117.612 134.054,119.945 133.5,123.5C 132.844,124.622 132.511,125.955 132.5,127.5C 132.361,129.883 133.028,131.883 134.5,133.5C 134.5,134.167 134.5,134.833 134.5,135.5C 132.549,133.52 131.049,131.187 130,128.5C 128.58,130.422 126.747,131.755 124.5,132.5C 125.747,134.497 126.581,136.497 127,138.5C 126.292,137.619 125.458,136.953 124.5,136.5C 120.485,128.288 122.485,121.955 130.5,117.5C 133.406,116.892 135.74,115.559 137.5,113.5 Z"/></g>
<g><path style="opacity:1" fill="#2b5732" d="M 160.5,117.5 C 162.355,119.033 164.188,120.7 166,122.5C 166.667,123.167 166.667,123.833 166,124.5C 161.179,122.681 156.679,120.348 152.5,117.5C 150.946,116.105 151.279,115.439 153.5,115.5C 155.762,116.467 158.095,117.134 160.5,117.5 Z"/></g>
<g><path style="opacity:1" fill="#edeeed" d="M 195.5,114.5 C 197.772,115.441 199.772,116.774 201.5,118.5C 201.833,121.5 200.5,122.833 197.5,122.5C 196.2,121.173 194.867,119.84 193.5,118.5C 194.18,117.14 194.847,115.807 195.5,114.5 Z"/></g>
<g><path style="opacity:1" fill="#174821" d="M 147.5,115.5 C 147.082,116.222 146.416,116.722 145.5,117C 148.991,118.37 152.325,119.87 155.5,121.5C 156.11,122.391 156.443,123.391 156.5,124.5C 156.5,125.167 156.167,125.5 155.5,125.5C 154.571,126.936 153.405,128.269 152,129.5C 151.915,121.89 148.415,119.39 141.5,122C 140.748,122.671 140.414,123.504 140.5,124.5C 139.378,126.288 139.211,128.288 140,130.5C 141.667,131.733 143.167,133.067 144.5,134.5C 142.5,134.5 140.5,134.5 138.5,134.5C 137.207,134.125 135.874,133.792 134.5,133.5C 133.793,130.214 133.46,126.881 133.5,123.5C 135.471,121.192 137.471,118.858 139.5,116.5C 142.127,115.908 144.794,115.575 147.5,115.5 Z"/></g>
<g><path style="opacity:1" fill="#8da391" d="M 95.5,115.5 C 94.4154,117.587 92.7488,118.92 90.5,119.5C 91.5846,117.413 93.2512,116.08 95.5,115.5 Z"/></g>
<g><path style="opacity:1" fill="#e8ebe8" d="M 126.5,116.5 C 128.099,116.232 129.432,116.566 130.5,117.5C 122.485,121.955 120.485,128.288 124.5,136.5C 125.458,136.953 126.292,137.619 127,138.5C 126.581,136.497 125.747,134.497 124.5,132.5C 126.747,131.755 128.58,130.422 130,128.5C 131.049,131.187 132.549,133.52 134.5,135.5C 135.388,137.809 137.054,139.476 139.5,140.5C 139.833,139.833 140.167,139.167 140.5,138.5C 147.576,143.22 153.41,141.887 158,134.5C 160,130.833 160,127.167 158,123.5C 157.617,124.056 157.117,124.389 156.5,124.5C 156.443,123.391 156.11,122.391 155.5,121.5C 154.5,120.167 153.5,118.833 152.5,117.5C 156.679,120.348 161.179,122.681 166,124.5C 166.667,123.833 166.667,123.167 166,122.5C 164.188,120.7 162.355,119.033 160.5,117.5C 168.787,120.315 176.787,123.648 184.5,127.5C 183.442,128.6 182.608,129.934 182,131.5C 181.667,131.167 181.333,130.833 181,130.5C 178.661,133.808 177.828,137.308 178.5,141C 176.519,141.605 176.185,142.605 177.5,144C 175.519,144.605 175.185,145.605 176.5,147C 175.833,147.667 175.167,148.333 174.5,149C 174.5,150.667 174.5,152.333 174.5,154C 175.094,154.464 175.761,154.631 176.5,154.5C 175.496,156.677 176.162,157.011 178.5,155.5C 177.432,166.749 172.765,176.082 164.5,183.5C 164.167,183.5 163.833,183.5 163.5,183.5C 163.5,182.833 163.5,182.167 163.5,181.5C 163.721,178.903 164.221,178.903 165,181.5C 164.856,175.566 163.022,170.233 159.5,165.5C 154.668,157.059 148.834,156.392 142,163.5C 136.374,172.846 133.874,183.013 134.5,194C 134.144,204.92 136.644,215.087 142,224.5C 146.049,229.977 150.882,230.81 156.5,227C 158.007,226.163 158.507,224.996 158,223.5C 150.723,229.671 145.056,228.338 141,219.5C 136.907,208.215 135.407,196.548 136.5,184.5C 139.826,184.967 140.159,186.134 137.5,188C 139.158,188.725 139.658,189.892 139,191.5C 138.346,190.304 137.846,190.304 137.5,191.5C 139.396,192.466 141.396,192.799 143.5,192.5C 143.263,191.209 143.596,190.209 144.5,189.5C 144.674,191.861 145.007,194.194 145.5,196.5C 144.078,196.291 142.745,195.791 141.5,195C 142.167,194.667 142.833,194.333 143.5,194C 142.056,193.219 140.723,193.386 139.5,194.5C 140.711,195.72 140.711,196.887 139.5,198C 143.131,199.963 142.798,201.463 138.5,202.5C 138.216,204.415 138.549,206.081 139.5,207.5C 139.41,210.152 140.076,212.485 141.5,214.5C 141.263,215.791 141.596,216.791 142.5,217.5C 142.66,219.153 143.326,220.486 144.5,221.5C 145.86,223.981 146.86,223.648 147.5,220.5C 150.598,217.207 151.931,213.207 151.5,208.5C 152.315,207.571 153.148,206.571 154,205.5C 154.198,207.382 154.698,209.048 155.5,210.5C 156.5,211.833 157.5,211.833 158.5,210.5C 159.222,210.918 159.722,211.584 160,212.5C 161.412,208.272 162.246,203.939 162.5,199.5C 164.781,199.923 166.448,199.256 167.5,197.5C 168.605,198.6 169.938,199.267 171.5,199.5C 170.791,200.404 169.791,200.737 168.5,200.5C 168.143,215.759 162.476,228.593 151.5,239C 152.094,239.464 152.761,239.631 153.5,239.5C 151.421,241.873 148.754,243.206 145.5,243.5C 145.96,242.459 147.293,241.625 149.5,241C 146.197,241.64 142.863,241.474 139.5,240.5C 137.651,239.407 135.984,238.074 134.5,236.5C 135.833,236.833 137.167,237.167 138.5,237.5C 140.455,239.326 142.788,239.826 145.5,239C 144.5,238.667 143.5,238.333 142.5,238C 148.175,237.536 148.508,236.869 143.5,236C 145.5,235.667 147.5,235.333 149.5,235C 145.148,234.581 144.815,233.914 148.5,233C 146.975,231.991 145.308,231.491 143.5,231.5C 143.047,230.542 142.381,229.708 141.5,229C 143.612,227.783 143.279,226.617 140.5,225.5C 132.261,209.284 130.428,192.284 135,174.5C 136.819,168.855 139.652,163.855 143.5,159.5C 143.376,158.803 143.376,157.97 143.5,157C 145.788,156.178 148.122,155.511 150.5,155C 148.618,154.802 146.952,154.302 145.5,153.5C 146.873,153.657 148.207,153.49 149.5,153C 147.527,152.505 145.527,152.338 143.5,152.5C 144.609,151.71 145.942,151.21 147.5,151C 139.5,150.333 139.5,149.667 147.5,149C 144.937,148.237 144.937,147.737 147.5,147.5C 148.849,147.846 150.183,148.179 151.5,148.5C 150.942,147.21 149.942,146.377 148.5,146C 143.1,143.684 138.1,144.184 133.5,147.5C 127.855,149.811 123.855,153.811 121.5,159.5C 120.865,156.069 119.865,152.736 118.5,149.5C 118.845,146.935 117.512,145.101 114.5,144C 116.797,142.84 116.464,141.84 113.5,141C 114.167,140.667 114.833,140.333 115.5,140C 114.167,139.333 112.833,138.667 111.5,138C 112.167,137.667 112.833,137.333 113.5,137C 112.167,136.333 112.167,135.667 113.5,135C 112.08,132.791 110.413,130.791 108.5,129C 112.321,128.601 112.988,127.268 110.5,125C 111.686,123.588 113.019,122.421 114.5,121.5C 118.889,120.597 122.889,118.931 126.5,116.5 Z"/></g>
<g><path style="opacity:1" fill="#708e76" d="M 126.5,116.5 C 122.889,118.931 118.889,120.597 114.5,121.5C 115.833,120.5 117.167,119.5 118.5,118.5C 121.167,117.833 123.833,117.167 126.5,116.5 Z"/></g>
<g><path style="opacity:1" fill="#a1aea3" d="M 90.5,119.5 C 90.8351,123.511 92.8351,124.511 96.5,122.5C 95.9423,123.79 94.9423,124.623 93.5,125C 94.056,125.383 94.3893,125.883 94.5,126.5C 91.5444,125.545 89.5444,123.545 88.5,120.5C 88.9569,119.702 89.6236,119.369 90.5,119.5 Z"/></g>
<g><path style="opacity:1" fill="#b1c0b4" d="M 139.5,116.5 C 137.471,118.858 135.471,121.192 133.5,123.5C 134.054,119.945 136.054,117.612 139.5,116.5 Z"/></g>
<g><path style="opacity:1" fill="#eaeceb" d="M 197.5,122.5 C 197.973,123.906 198.973,124.573 200.5,124.5C 198.084,126.346 196.417,128.679 195.5,131.5C 195.5,131.167 195.5,130.833 195.5,130.5C 195.586,129.504 195.252,128.671 194.5,128C 192.512,127.062 190.512,126.228 188.5,125.5C 190.063,120.219 193.063,119.219 197.5,122.5 Z"/></g>
<g><path style="opacity:1" fill="#b3c2b6" d="M 100.5,118.5 C 102.993,118.131 103.66,118.797 102.5,120.5C 100.5,121.167 98.5,121.833 96.5,122.5C 97.8333,121.167 99.1667,119.833 100.5,118.5 Z"/></g>
<g><path style="opacity:1" fill="#174821" d="M 102.5,120.5 C 103.141,121.482 103.807,122.482 104.5,123.5C 101.511,125.662 98.1774,126.662 94.5,126.5C 94.3893,125.883 94.056,125.383 93.5,125C 94.9423,124.623 95.9423,123.79 96.5,122.5C 98.5,121.833 100.5,121.167 102.5,120.5 Z"/></g>
<g><path style="opacity:1" fill="#1a4b24" d="M 146.5,131.5 C 141.984,131.519 139.984,129.186 140.5,124.5C 145.01,120.244 148.343,121.078 150.5,127C 150.178,129.521 148.844,131.021 146.5,131.5 Z"/></g>
<g><path style="opacity:1" fill="#6f8a74" d="M 201.5,118.5 C 204.189,120.815 203.855,122.815 200.5,124.5C 198.973,124.573 197.973,123.906 197.5,122.5C 200.5,122.833 201.833,121.5 201.5,118.5 Z"/></g>
<g><path style="opacity:1" fill="#dee4df" d="M 155.5,125.5 C 155.916,134.584 151.582,138.751 142.5,138C 140.382,137.74 138.716,136.74 137.5,135C 137.728,134.601 138.062,134.435 138.5,134.5C 140.5,134.5 142.5,134.5 144.5,134.5C 145.906,134.027 146.573,133.027 146.5,131.5C 148.844,131.021 150.178,129.521 150.5,127C 148.343,121.078 145.01,120.244 140.5,124.5C 140.414,123.504 140.748,122.671 141.5,122C 148.415,119.39 151.915,121.89 152,129.5C 153.405,128.269 154.571,126.936 155.5,125.5 Z"/></g>
<g><path style="opacity:1" fill="#c8d3ca" d="M 133.5,123.5 C 133.46,126.881 133.793,130.214 134.5,133.5C 133.028,131.883 132.361,129.883 132.5,127.5C 132.511,125.955 132.844,124.622 133.5,123.5 Z"/></g>
<g><path style="opacity:1" fill="#bac8bd" d="M 143.5,125.5 C 145.465,125.948 145.798,126.948 144.5,128.5C 143.614,127.675 143.281,126.675 143.5,125.5 Z"/></g>
<g><path style="opacity:1" fill="#90a795" d="M 140.5,124.5 C 139.984,129.186 141.984,131.519 146.5,131.5C 146.573,133.027 145.906,134.027 144.5,134.5C 143.167,133.067 141.667,131.733 140,130.5C 139.211,128.288 139.378,126.288 140.5,124.5 Z"/></g>
<g><path style="opacity:1" fill="#8ba390" d="M 184.5,127.5 C 188.086,128.793 191.752,129.793 195.5,130.5C 195.5,130.833 195.5,131.167 195.5,131.5C 193.853,134.473 191.853,137.14 189.5,139.5C 188.078,139.709 186.745,140.209 185.5,141C 186.167,141.333 186.833,141.667 187.5,142C 186.328,142.419 185.328,143.085 184.5,144C 185.833,144.667 185.833,145.333 184.5,146C 182.833,147 181.167,148 179.5,149C 180.167,149.333 180.833,149.667 181.5,150C 179.76,151.517 178.094,153.017 176.5,154.5C 175.761,154.631 175.094,154.464 174.5,154C 174.5,152.333 174.5,150.667 174.5,149C 175.167,148.333 175.833,147.667 176.5,147C 175.185,145.605 175.519,144.605 177.5,144C 176.185,142.605 176.519,141.605 178.5,141C 177.828,137.308 178.661,133.808 181,130.5C 181.333,130.833 181.667,131.167 182,131.5C 182.608,129.934 183.442,128.6 184.5,127.5 Z"/></g>
<g><path style="opacity:1" fill="#6a8970" d="M 113.5,127.5 C 117.087,134.865 121.087,142.531 125.5,150.5C 125.192,151.308 124.692,151.975 124,152.5C 120.151,144.802 116.318,137.136 112.5,129.5C 112.863,128.817 113.196,128.15 113.5,127.5 Z"/></g>
<g><path style="opacity:1" fill="#728f78" d="M 134.5,135.5 C 134.5,134.833 134.5,134.167 134.5,133.5C 135.874,133.792 137.207,134.125 138.5,134.5C 138.062,134.435 137.728,134.601 137.5,135C 138.716,136.74 140.382,137.74 142.5,138C 151.582,138.751 155.916,134.584 155.5,125.5C 156.167,125.5 156.5,125.167 156.5,124.5C 157.117,124.389 157.617,124.056 158,123.5C 160,127.167 160,130.833 158,134.5C 153.41,141.887 147.576,143.22 140.5,138.5C 140.167,139.167 139.833,139.833 139.5,140.5C 137.054,139.476 135.388,137.809 134.5,135.5 Z"/></g>
<g><path style="opacity:1" fill="#26532e" d="M 124.5,136.5 C 124.414,137.496 124.748,138.329 125.5,139C 128.554,141.194 131.888,142.861 135.5,144C 133.965,144.496 132.465,144.33 131,143.5C 129.287,144.137 129.121,145.137 130.5,146.5C 129.635,147.583 128.635,147.749 127.5,147C 124.428,143.703 122.928,139.87 123,135.5C 123.383,136.056 123.883,136.389 124.5,136.5 Z"/></g>
<g><path style="opacity:1" fill="#77937b" d="M 167.5,141.5 C 166.883,141.611 166.383,141.944 166,142.5C 165.768,141.263 165.268,140.263 164.5,139.5C 167.086,134.337 168.086,135.004 167.5,141.5 Z"/></g>
<g><path style="opacity:1" fill="#5a7d62" d="M 164.5,139.5 C 164.027,140.906 163.027,141.573 161.5,141.5C 161.973,140.094 162.973,139.427 164.5,139.5 Z"/></g>
<g><path style="opacity:1" fill="#6d8b73" d="M 164.5,156.5 C 164.577,155.25 165.244,154.417 166.5,154C 165.366,152.984 165.699,152.317 167.5,152C 167.043,151.586 166.709,151.086 166.5,150.5C 169.402,145.368 171.735,140.035 173.5,134.5C 174.316,132.856 175.65,131.69 177.5,131C 176.216,129.703 176.383,128.536 178,127.5C 178.692,128.025 179.192,128.692 179.5,129.5C 175.061,138.045 170.894,146.711 167,155.5C 166.329,156.252 165.496,156.586 164.5,156.5 Z"/></g>
<g><path style="opacity:1" fill="#53775a" d="M 161.5,141.5 C 158.203,144.763 154.203,145.929 149.5,145C 153.62,144.138 157.62,142.971 161.5,141.5 Z"/></g>
<g><path style="opacity:1" fill="#93a998" d="M 102.5,120.5 C 104.558,121.933 106.892,122.6 109.5,122.5C 111.117,121.962 112.784,121.629 114.5,121.5C 113.019,122.421 111.686,123.588 110.5,125C 112.988,127.268 112.321,128.601 108.5,129C 110.413,130.791 112.08,132.791 113.5,135C 112.167,135.667 112.167,136.333 113.5,137C 112.833,137.333 112.167,137.667 111.5,138C 112.833,138.667 114.167,139.333 115.5,140C 114.833,140.333 114.167,140.667 113.5,141C 116.464,141.84 116.797,142.84 114.5,144C 117.512,145.101 118.845,146.935 118.5,149.5C 116.158,149.775 116.158,150.608 118.5,152C 117.833,152.333 117.167,152.667 116.5,153C 117.5,154 118.5,155 119.5,156C 118.833,156.333 118.167,156.667 117.5,157C 119.848,158.688 120.015,160.522 118,162.5C 117.383,161.551 117.549,160.718 118.5,160C 116.981,158.649 115.648,157.149 114.5,155.5C 114.709,154.914 115.043,154.414 115.5,154C 111.645,151.294 108.645,148.461 106.5,145.5C 102.863,141.017 99.3634,136.35 96,131.5C 95.6481,129.753 95.1481,128.086 94.5,126.5C 98.1774,126.662 101.511,125.662 104.5,123.5C 103.807,122.482 103.141,121.482 102.5,120.5 Z"/></g>
<g><path style="opacity:1" fill="#1b4b25" d="M 107.5,123.5 C 109.465,123.948 109.798,124.948 108.5,126.5C 104.648,128.799 100.648,129.799 96.5,129.5C 100.1,127.203 103.767,125.203 107.5,123.5 Z"/></g>
<g><path style="opacity:1" fill="#2a5632" d="M 137.5,152.5 C 134.167,153.833 131.833,156.167 130.5,159.5C 129.9,156.375 128.733,156.042 127,158.5C 113.885,183.554 114.551,208.221 129,232.5C 130.451,234.464 132.284,235.797 134.5,236.5C 135.984,238.074 137.651,239.407 139.5,240.5C 138.07,240.579 136.736,240.246 135.5,239.5C 135.167,240.167 134.833,240.833 134.5,241.5C 124.622,235.109 118.456,226.109 116,214.5C 111.209,195.407 113.042,177.074 121.5,159.5C 123.855,153.811 127.855,149.811 133.5,147.5C 132.537,148.363 132.537,149.03 133.5,149.5C 135.861,147.545 138.528,146.712 141.5,147C 140.167,147.667 138.833,148.333 137.5,149C 138.5,149.333 139.5,149.667 140.5,150C 139.058,150.377 138.058,151.21 137.5,152.5 Z"/></g>
<g><path style="opacity:1" fill="#b0c0b3" d="M 173.5,134.5 C 171.735,140.035 169.402,145.368 166.5,150.5C 166.709,151.086 167.043,151.586 167.5,152C 165.699,152.317 165.366,152.984 166.5,154C 165.244,154.417 164.577,155.25 164.5,156.5C 165.5,157.5 166.5,158.5 167.5,159.5C 168.827,161.182 170.494,162.515 172.5,163.5C 172.5,163.833 172.5,164.167 172.5,164.5C 170.324,162.701 167.99,162.368 165.5,163.5C 167.145,164.696 168.811,165.696 170.5,166.5C 169.432,167.434 168.099,167.768 166.5,167.5C 166.351,168.552 166.517,169.552 167,170.5C 169.036,169.898 170.87,168.898 172.5,167.5C 173.731,168.651 173.731,169.817 172.5,171C 170.744,171.202 169.078,171.702 167.5,172.5C 168.5,173.167 169.5,173.833 170.5,174.5C 170.154,175.696 169.654,175.696 169,174.5C 168.667,175.5 168.333,176.5 168,177.5C 165.568,165.956 160.068,156.29 151.5,148.5C 152.847,149.171 154.014,149.171 155,148.5C 157.761,150.681 159.594,153.015 160.5,155.5C 163.882,151.404 166.215,146.737 167.5,141.5C 169.559,138.389 171.392,135.056 173,131.5C 173.483,132.448 173.649,133.448 173.5,134.5 Z"/></g>
<g><path style="opacity:1" fill="#7e9984" d="M 137.5,152.5 C 135.5,155.167 133.167,157.5 130.5,159.5C 131.833,156.167 134.167,153.833 137.5,152.5 Z"/></g>
<g><path style="opacity:1" fill="#d5dcd7" d="M 226.5,183.5 C 226.511,181.983 227.177,180.816 228.5,180C 227.366,178.984 227.699,178.317 229.5,178C 228.072,177.421 226.738,177.588 225.5,178.5C 219.846,179.06 214.513,180.56 209.5,183C 212.5,183.333 215.5,183.667 218.5,184C 217.584,184.278 216.918,184.778 216.5,185.5C 212.694,185.412 209.027,186.079 205.5,187.5C 208.199,188.729 210.865,188.729 213.5,187.5C 215.099,187.232 216.432,187.566 217.5,188.5C 211.354,196.798 203.021,199.965 192.5,198C 186.865,200.932 180.865,202.099 174.5,201.5C 176.5,200.833 178.5,200.167 180.5,199.5C 193.689,197.745 193.689,196.245 180.5,195C 171.913,194.516 171.579,195.516 179.5,198C 175.744,198.35 172.077,197.85 168.5,196.5C 167.893,196.624 167.56,196.957 167.5,197.5C 166.448,199.256 164.781,199.923 162.5,199.5C 162.246,203.939 161.412,208.272 160,212.5C 159.722,211.584 159.222,210.918 158.5,210.5C 159.472,207.946 160.138,205.28 160.5,202.5C 160.448,200.145 159.281,198.812 157,198.5C 155.97,198.836 155.47,199.503 155.5,200.5C 154.668,201.329 155.001,202.162 156.5,203C 155.451,203.492 154.451,203.326 153.5,202.5C 152.402,206.361 151.569,206.361 151,202.5C 150.667,203.167 150.333,203.833 150,204.5C 149.146,201.408 147.646,198.741 145.5,196.5C 145.007,194.194 144.674,191.861 144.5,189.5C 144.389,188.883 144.056,188.383 143.5,188C 145.683,185.65 148.016,183.483 150.5,181.5C 150.154,180.304 149.654,180.304 149,181.5C 148.517,180.552 148.351,179.552 148.5,178.5C 148.369,177.624 148.702,176.957 149.5,176.5C 150.251,177.376 150.751,178.376 151,179.5C 151.167,178.833 151.333,178.167 151.5,177.5C 149.282,172.805 148.115,167.805 148,162.5C 147.667,164.833 147.333,167.167 147,169.5C 144.329,166.979 142.495,167.646 141.5,171.5C 140.833,171.5 140.5,171.167 140.5,170.5C 144.478,159.367 150.811,157.701 159.5,165.5C 163.022,170.233 164.856,175.566 165,181.5C 164.221,178.903 163.721,178.903 163.5,181.5C 162.363,173.953 159.029,167.453 153.5,162C 152.5,161.333 151.5,161.333 150.5,162C 156.446,167.051 159.946,173.551 161,181.5C 161.417,182.756 162.25,183.423 163.5,183.5C 163.833,183.5 164.167,183.5 164.5,183.5C 161.31,187.018 157.477,189.685 153,191.5C 152.251,192.635 152.417,193.635 153.5,194.5C 170.834,187.667 181.501,175.167 185.5,157C 200.579,150.235 214.912,142.235 228.5,133C 235.626,128.208 241.793,122.375 247,115.5C 250.461,109.683 251.128,103.683 249,97.5C 246.829,101.844 244.163,105.844 241,109.5C 224.219,126.64 205.052,140.474 183.5,151C 181.341,152.059 179.674,153.559 178.5,155.5C 176.162,157.011 175.496,156.677 176.5,154.5C 178.094,153.017 179.76,151.517 181.5,150C 180.833,149.667 180.167,149.333 179.5,149C 181.167,148 182.833,147 184.5,146C 185.833,145.333 185.833,144.667 184.5,144C 185.328,143.085 186.328,142.419 187.5,142C 186.833,141.667 186.167,141.333 185.5,141C 186.745,140.209 188.078,139.709 189.5,139.5C 188.828,142.342 187.494,144.842 185.5,147C 205.404,137.812 223.238,125.312 239,109.5C 242.759,104.901 245.926,99.9008 248.5,94.5C 249.167,93.1667 249.833,93.1667 250.5,94.5C 251.356,97.2787 252.023,100.112 252.5,103C 251.751,108.56 250.251,113.726 248,118.5C 252.934,115.735 257.1,112.068 260.5,107.5C 262.395,109.867 262.895,112.534 262,115.5C 259.453,125.808 256.12,135.808 252,145.5C 251,147.833 249.333,149.5 247,150.5C 247.011,156.318 244.511,160.651 239.5,163.5C 238.832,168.834 236.166,172.834 231.5,175.5C 230.823,178.867 229.157,181.534 226.5,183.5 Z"/></g>
<g><path style="opacity:1" fill="#2b5733" d="M 241.5,157.5 C 239.833,158.167 238.167,158.833 236.5,159.5C 232.657,160.391 228.824,161.391 225,162.5C 223.189,161.576 223.355,160.743 225.5,160C 231.756,158.526 237.756,156.359 243.5,153.5C 244.386,154.325 244.719,155.325 244.5,156.5C 243.209,156.263 242.209,156.596 241.5,157.5 Z"/></g>
<g><path style="opacity:1" fill="#1c4c25" d="M 203.5,151.5 C 204.873,151.343 206.207,151.51 207.5,152C 202.292,158.934 195.292,162.101 186.5,161.5C 186.5,160.167 186.5,158.833 186.5,157.5C 192.136,155.171 197.802,153.171 203.5,151.5 Z"/></g>
<g><path style="opacity:1" fill="#275430" d="M 250.5,138.5 C 253.113,139.095 253.113,139.929 250.5,141C 250.833,141.333 251.167,141.667 251.5,142C 250.167,143 248.833,144 247.5,145C 247.833,145.333 248.167,145.667 248.5,146C 247.5,146.333 246.5,146.667 245.5,147C 246.641,147.741 246.641,148.575 245.5,149.5C 240.237,153.97 234.237,156.47 227.5,157C 231.687,153.594 236.354,150.927 241.5,149C 242.696,148.346 242.696,147.846 241.5,147.5C 239.669,148.929 237.669,149.429 235.5,149C 240.916,145.97 245.916,142.47 250.5,138.5 Z"/></g>
<g><path style="opacity:1" fill="#1c4c26" d="M 229.5,146.5 C 231.527,146.338 233.527,146.505 235.5,147C 227.453,156.281 217.286,162.114 205,164.5C 203.829,163.66 202.662,162.827 201.5,162C 207.868,160.102 213.868,157.435 219.5,154C 214.7,154.765 210.034,156.265 205.5,158.5C 205.167,158.333 204.833,158.167 204.5,158C 206.167,156.333 207.833,154.667 209.5,153C 216.115,150.294 222.782,148.127 229.5,146.5 Z"/></g>
<g><path style="opacity:1" fill="#24522d" d="M 254.5,125.5 C 256.49,125.993 256.49,127.16 254.5,129C 255.634,130.016 255.301,130.683 253.5,131C 254.634,132.016 254.301,132.683 252.5,133C 252.833,133.333 253.167,133.667 253.5,134C 248.805,139.183 243.138,143.016 236.5,145.5C 235.692,145.192 235.025,144.692 234.5,144C 239.167,141.333 243.833,138.667 248.5,136C 249.696,135.346 249.696,134.846 248.5,134.5C 247.549,135.326 246.549,135.492 245.5,135C 246.191,133.933 246.691,132.766 247,131.5C 249.844,129.841 252.344,127.841 254.5,125.5 Z"/></g>
<g><path style="opacity:1" fill="#22502b" d="M 242.5,131.5 C 245.907,131.125 246.407,132.125 244,134.5C 234.405,143.92 222.905,149.087 209.5,150C 216.652,146.923 223.652,143.59 230.5,140C 230,139.833 229.5,139.667 229,139.5C 223.526,141.769 218.026,143.602 212.5,145C 216.5,142.333 220.5,139.667 224.5,137C 230.369,134.338 236.369,132.505 242.5,131.5 Z"/></g>
<g><path style="opacity:1" fill="#295531" d="M 259.5,110.5 C 261.877,112.03 261.877,113.53 259.5,115C 260.345,116.558 259.679,117.558 257.5,118C 257.347,120.61 256.014,122.943 253.5,125C 250.833,126.667 248.167,128.333 245.5,130C 243.5,130.667 241.5,130.667 239.5,130C 242.167,128.333 244.833,126.667 247.5,125C 244.843,125.401 242.176,126.234 239.5,127.5C 238.304,127.154 238.304,126.654 239.5,126C 247.21,122.117 253.877,116.95 259.5,110.5 Z"/></g>
<g><path style="opacity:1" fill="#3e6644" d="M 130.5,159.5 C 128.491,163.876 126.491,168.21 124.5,172.5C 119.167,186.833 119.167,201.167 124.5,215.5C 126.287,219.075 128.121,222.741 130,226.5C 130.717,225.956 131.217,225.289 131.5,224.5C 131.167,223.167 130.833,221.833 130.5,220.5C 130.5,219.833 130.833,219.5 131.5,219.5C 131.5,220.167 131.833,220.5 132.5,220.5C 133.167,220.167 133.833,219.833 134.5,219.5C 135.582,222.659 137.416,225.326 140,227.5C 140.464,226.906 140.631,226.239 140.5,225.5C 143.279,226.617 143.612,227.783 141.5,229C 142.381,229.708 143.047,230.542 143.5,231.5C 139.566,229.402 136.4,226.402 134,222.5C 135.616,227.795 139.116,231.628 144.5,234C 142.711,234.52 141.044,234.187 139.5,233C 132.254,225.825 131.92,226.158 138.5,234C 135.564,233.107 133.064,231.274 131,228.5C 130.333,229.167 130.333,229.833 131,230.5C 133.396,233.067 135.896,235.4 138.5,237.5C 137.167,237.167 135.833,236.833 134.5,236.5C 132.284,235.797 130.451,234.464 129,232.5C 114.551,208.221 113.885,183.554 127,158.5C 128.733,156.042 129.9,156.375 130.5,159.5 Z"/></g>
<g><path style="opacity:1" fill="#87a08b" d="M 145.5,153.5 C 146.952,154.302 148.618,154.802 150.5,155C 148.122,155.511 145.788,156.178 143.5,157C 143.376,157.97 143.376,158.803 143.5,159.5C 141.938,159.733 140.605,160.4 139.5,161.5C 139.631,160.761 139.464,160.094 139,159.5C 136.957,161.208 135.29,163.208 134,165.5C 135.84,159.822 139.673,155.822 145.5,153.5 Z"/></g>
<g><path style="opacity:1" fill="#1a4b24" d="M 172.5,163.5 C 170.494,162.515 168.827,161.182 167.5,159.5C 167.369,158.761 167.536,158.094 168,157.5C 170.458,158.64 172.625,160.14 174.5,162C 174.164,163.03 173.497,163.53 172.5,163.5 Z"/></g>
<g><path style="opacity:1" fill="#92a997" d="M 151.5,148.5 C 150.183,148.179 148.849,147.846 147.5,147.5C 144.937,147.737 144.937,148.237 147.5,149C 139.5,149.667 139.5,150.333 147.5,151C 145.942,151.21 144.609,151.71 143.5,152.5C 139.603,154.886 136.103,157.886 133,161.5C 134.687,157.145 137.854,153.978 142.5,152C 140.803,151.616 139.137,151.782 137.5,152.5C 138.058,151.21 139.058,150.377 140.5,150C 139.5,149.667 138.5,149.333 137.5,149C 138.833,148.333 140.167,147.667 141.5,147C 138.528,146.712 135.861,147.545 133.5,149.5C 132.537,149.03 132.537,148.363 133.5,147.5C 138.1,144.184 143.1,143.684 148.5,146C 149.942,146.377 150.942,147.21 151.5,148.5 Z"/></g>
<g><path style="opacity:1" fill="#1d4d27" d="M 143.5,152.5 C 145.527,152.338 147.527,152.505 149.5,153C 148.207,153.49 146.873,153.657 145.5,153.5C 139.673,155.822 135.84,159.822 134,165.5C 135.29,163.208 136.957,161.208 139,159.5C 139.464,160.094 139.631,160.761 139.5,161.5C 133.787,167.621 130.787,174.954 130.5,183.5C 129.167,190.5 129.167,197.5 130.5,204.5C 130.825,209.801 132.158,214.801 134.5,219.5C 133.833,219.833 133.167,220.167 132.5,220.5C 127.358,202.815 127.192,185.149 132,167.5C 124.88,184.787 124.713,202.12 131.5,219.5C 130.833,219.5 130.5,219.833 130.5,220.5C 128.127,215.871 126.627,210.871 126,205.5C 124.997,195.07 125.497,184.737 127.5,174.5C 127.333,173.833 127.167,173.167 127,172.5C 121.86,189.063 122.526,205.397 129,221.5C 129.377,222.942 130.21,223.942 131.5,224.5C 131.217,225.289 130.717,225.956 130,226.5C 128.121,222.741 126.287,219.075 124.5,215.5C 121.833,201.167 121.833,186.833 124.5,172.5C 126.491,168.21 128.491,163.876 130.5,159.5C 133.167,157.5 135.5,155.167 137.5,152.5C 139.137,151.782 140.803,151.616 142.5,152C 137.854,153.978 134.687,157.145 133,161.5C 136.103,157.886 139.603,154.886 143.5,152.5 Z"/></g>
<g><path style="opacity:1" fill="#6f8d75" d="M 241.5,157.5 C 242.525,157.897 242.692,158.563 242,159.5C 239.287,161.72 236.454,163.72 233.5,165.5C 234.759,164.021 235.759,162.354 236.5,160.5C 236.5,160.167 236.5,159.833 236.5,159.5C 238.167,158.833 239.833,158.167 241.5,157.5 Z"/></g>
<g><path style="opacity:1" fill="#1d4d27" d="M 236.5,160.5 C 235.759,162.354 234.759,164.021 233.5,165.5C 228.836,166.67 224.17,167.503 219.5,168C 220.167,167.333 220.833,166.667 221.5,166C 226.644,164.453 231.644,162.62 236.5,160.5 Z"/></g>
<g><path style="opacity:1" fill="#21502a" d="M 172.5,164.5 C 173.043,164.56 173.376,164.893 173.5,165.5C 172.675,166.386 171.675,166.719 170.5,166.5C 168.811,165.696 167.145,164.696 165.5,163.5C 167.99,162.368 170.324,162.701 172.5,164.5 Z"/></g>
<g><path style="opacity:1" fill="#1f4e28" d="M 216.5,162.5 C 218.199,162.34 219.866,162.506 221.5,163C 215.34,171.413 207.007,175.58 196.5,175.5C 196.5,174.5 196.5,173.5 196.5,172.5C 200.302,172.24 203.969,171.406 207.5,170C 206.667,169.833 205.833,169.667 205,169.5C 202.522,170.332 200.022,170.499 197.5,170C 203.565,166.594 209.899,164.094 216.5,162.5 Z"/></g>
<g><path style="opacity:1" fill="#96ac9b" d="M 130.5,163.5 C 131.043,163.56 131.376,163.893 131.5,164.5C 130.667,166.167 129.833,167.833 129,169.5C 128.591,167.305 129.091,165.305 130.5,163.5 Z"/></g>
<g><path style="opacity:1" fill="#15471f" d="M 184.5,164.5 C 189.875,164.172 195.208,164.505 200.5,165.5C 195.504,170.584 189.504,172.25 182.5,170.5C 183.747,168.677 184.414,166.677 184.5,164.5 Z"/></g>
<g><path style="opacity:1" fill="#214f2a" d="M 163.5,181.5 C 163.5,182.167 163.5,182.833 163.5,183.5C 162.25,183.423 161.417,182.756 161,181.5C 159.946,173.551 156.446,167.051 150.5,162C 151.5,161.333 152.5,161.333 153.5,162C 159.029,167.453 162.363,173.953 163.5,181.5 Z"/></g>
<g><path style="opacity:1" fill="#285530" d="M 235.5,165.5 C 237.646,165.696 237.812,166.696 236,168.5C 234.334,167.66 234.167,168.16 235.5,170C 230.262,174.035 224.429,176.869 218,178.5C 216.276,178.045 214.776,177.212 213.5,176C 217.465,174.874 221.465,173.874 225.5,173C 221.971,172.378 218.471,172.545 215,173.5C 212.046,173.406 211.879,172.906 214.5,172C 222.001,171.013 229.001,168.847 235.5,165.5 Z"/></g>
<g><path style="opacity:1" fill="#a7b9ab" d="M 139.5,161.5 C 134.843,169.141 132.176,177.474 131.5,186.5C 130.596,185.791 130.263,184.791 130.5,183.5C 130.787,174.954 133.787,167.621 139.5,161.5 Z"/></g>
<g><path style="opacity:1" fill="#7c9782" d="M 148.5,178.5 C 147.683,176.031 147.183,173.365 147,170.5C 146.847,174.843 145.347,178.51 142.5,181.5C 141.655,180.329 140.989,178.995 140.5,177.5C 141.315,176.571 142.148,175.571 143,174.5C 142.737,175.951 142.904,177.284 143.5,178.5C 144.966,175.979 145.466,173.312 145,170.5C 144.333,171.833 143.333,172.833 142,173.5C 141.536,172.906 141.369,172.239 141.5,171.5C 142.495,167.646 144.329,166.979 147,169.5C 147.333,167.167 147.667,164.833 148,162.5C 148.115,167.805 149.282,172.805 151.5,177.5C 151.333,178.167 151.167,178.833 151,179.5C 150.751,178.376 150.251,177.376 149.5,176.5C 148.702,176.957 148.369,177.624 148.5,178.5 Z"/></g>
<g><path style="opacity:1" fill="#d1d9d3" d="M 106.5,145.5 C 108.645,148.461 111.645,151.294 115.5,154C 115.043,154.414 114.709,154.914 114.5,155.5C 115.648,157.149 116.981,158.649 118.5,160C 117.549,160.718 117.383,161.551 118,162.5C 120.015,160.522 119.848,158.688 117.5,157C 118.167,156.667 118.833,156.333 119.5,156C 118.5,155 117.5,154 116.5,153C 117.167,152.667 117.833,152.333 118.5,152C 116.158,150.608 116.158,149.775 118.5,149.5C 119.865,152.736 120.865,156.069 121.5,159.5C 113.042,177.074 111.209,195.407 116,214.5C 118.456,226.109 124.622,235.109 134.5,241.5C 134.833,240.833 135.167,240.167 135.5,239.5C 136.736,240.246 138.07,240.579 139.5,240.5C 142.863,241.474 146.197,241.64 149.5,241C 147.293,241.625 145.96,242.459 145.5,243.5C 140.244,245.186 135.244,244.353 130.5,241C 118.94,230.379 112.94,217.212 112.5,201.5C 107.818,201.662 103.485,200.495 99.5,198C 88.8863,199.979 80.553,196.812 74.5,188.5C 75.5676,187.566 76.901,187.232 78.5,187.5C 79.1667,187.5 79.8333,187.5 80.5,187.5C 82.6074,188.468 84.9407,188.802 87.5,188.5C 87.5,187.5 87.5,186.5 87.5,185.5C 85.1667,185.5 82.8333,185.5 80.5,185.5C 79.8333,185.5 79.1667,185.5 78.5,185.5C 80.2922,184.691 82.2922,184.191 84.5,184C 83.9558,183.283 83.2891,182.783 82.5,182.5C 77.4172,180.938 72.2506,179.605 67,178.5C 66.6886,179.742 67.1886,180.742 68.5,181.5C 66.359,183.253 67.0257,184.253 70.5,184.5C 71.0577,185.79 72.0577,186.623 73.5,187C 73.2716,187.399 72.9382,187.565 72.5,187.5C 66.1109,185.944 62.2776,181.944 61,175.5C 56.031,173.028 53.1977,169.028 52.5,163.5C 47.9422,160.388 45.4422,156.055 45,150.5C 39.9841,146.799 37.6508,141.799 38,135.5C 34.2563,131.624 32.5897,126.957 33,121.5C 31.266,118.702 30.0993,115.702 29.5,112.5C 29.3073,110.312 30.1406,108.645 32,107.5C 35.6814,112.83 40.1814,116.496 45.5,118.5C 40.5896,111.143 39.2563,103.143 41.5,94.5C 58.607,117.716 80.607,135.549 107.5,148C 106.748,147.329 106.414,146.496 106.5,145.5 Z"/></g>
<g><path style="opacity:1" fill="#2c5834" d="M 54.5,166.5 C 54.56,165.957 54.8933,165.624 55.5,165.5C 62.5691,168.533 69.9024,170.7 77.5,172C 78.1667,172.333 78.8333,172.667 79.5,173C 78.3333,173.167 77.1667,173.333 76,173.5C 73.1711,172.797 70.3378,172.63 67.5,173C 71.3321,174.625 75.3321,175.625 79.5,176C 77.8707,176.585 76.3707,177.419 75,178.5C 65.4462,176.741 58.6129,172.741 54.5,166.5 Z"/></g>
<g><path style="opacity:1" fill="#164720" d="M 91.5,164.5 C 96.8746,164.172 102.208,164.505 107.5,165.5C 108.747,167.323 109.414,169.323 109.5,171.5C 104.588,171.937 99.9217,171.104 95.5,169C 93.8082,167.693 92.4749,166.193 91.5,164.5 Z"/></g>
<g><path style="opacity:1" fill="#194a23" d="M 70.5,163.5 C 76.7979,163.475 83.1312,164.641 89.5,167C 91.3325,167.748 92.9991,168.748 94.5,170C 91.189,169.785 87.8557,169.785 84.5,170C 88.4885,171.331 92.4885,172.665 96.5,174C 92.593,175.856 88.593,175.856 84.5,174C 79.1075,171.437 74.4409,167.937 70.5,163.5 Z"/></g>
<g><path style="opacity:1" fill="#25522e" d="M 51.5,155.5 C 57.3206,157.828 63.3206,159.662 69.5,161C 68.737,161.944 67.737,162.444 66.5,162.5C 62.8786,161.118 59.2119,160.285 55.5,160C 61.1623,162.877 66.829,165.543 72.5,168C 66.3664,168.217 60.6997,166.717 55.5,163.5C 54.4329,161.259 52.7662,159.426 50.5,158C 51.2524,157.329 51.5858,156.496 51.5,155.5 Z"/></g>
<g><path style="opacity:1" fill="#7a9680" d="M 51.5,155.5 C 51.5858,156.496 51.2524,157.329 50.5,158C 52.7662,159.426 54.4329,161.259 55.5,163.5C 50.6019,161.639 48.2685,158.306 48.5,153.5C 49.7387,153.942 50.7387,154.609 51.5,155.5 Z"/></g>
<g><path style="opacity:1" fill="#174922" d="M 84.5,152.5 C 84.9169,151.876 85.5836,151.543 86.5,151.5C 92.9961,153.11 99.3295,155.11 105.5,157.5C 105.33,158.822 105.663,159.989 106.5,161C 97.521,162.341 90.1877,159.508 84.5,152.5 Z"/></g>
<g><path style="opacity:1" fill="#25522d" d="M 44.5,141.5 C 48.6401,143.739 52.6401,146.239 56.5,149C 54.4559,149.048 52.4559,148.548 50.5,147.5C 49.3044,147.846 49.3044,148.346 50.5,149C 56.2178,151.449 61.5512,154.449 66.5,158C 58.3432,157.088 51.3432,153.755 45.5,148C 45.8333,147.667 46.1667,147.333 46.5,147C 45.552,146.517 44.552,146.351 43.5,146.5C 44.9526,145.175 44.6192,144.342 42.5,144C 43.0659,143.005 43.7326,142.172 44.5,141.5 Z"/></g>
<g><path style="opacity:1" fill="#1e4d27" d="M 57.5,146.5 C 66.1536,147.388 74.4869,149.554 82.5,153C 84.1829,155.014 86.1829,156.68 88.5,158C 88,158.167 87.5,158.333 87,158.5C 82.9679,156.55 78.8012,155.384 74.5,155C 79.5992,157.883 84.9325,160.217 90.5,162C 89.3379,162.827 88.1712,163.66 87,164.5C 78.3476,162.756 70.5142,159.256 63.5,154C 60.8823,151.894 58.8823,149.394 57.5,146.5 Z"/></g>
<g><path style="opacity:1" fill="#63846a" d="M 44.5,141.5 C 43.7326,142.172 43.0659,143.005 42.5,144C 44.6192,144.342 44.9526,145.175 43.5,146.5C 41.2557,144.313 39.9224,141.979 39.5,139.5C 39.8333,139.167 40.1667,138.833 40.5,138.5C 41.9014,139.521 43.2347,140.521 44.5,141.5 Z"/></g>
<g><path style="opacity:1" fill="#295632" d="M 41.5,134.5 C 46.6406,137.907 51.9739,141.074 57.5,144C 56.9747,144.692 56.3081,145.192 55.5,145.5C 49.8015,143.324 44.8015,140.157 40.5,136C 41.056,135.617 41.3893,135.117 41.5,134.5 Z"/></g>
<g><path style="opacity:1" fill="#22502b" d="M 46.5,132.5 C 52.4984,131.787 58.4984,132.62 64.5,135C 68.8981,138.394 73.5648,141.394 78.5,144C 77.1667,144.667 75.8333,144.667 74.5,144C 68.9377,141.37 63.271,139.37 57.5,138C 65.2612,142.214 73.2612,145.881 81.5,149C 82.4506,149.718 82.6172,150.551 82,151.5C 74.1564,148.664 66.3231,145.83 58.5,143C 53.8251,140.179 49.8251,136.679 46.5,132.5 Z"/></g>
<g><path style="opacity:1" fill="#718f77" d="M 39.5,127.5 C 38.7326,128.172 38.0659,129.005 37.5,130C 38.5,131 39.5,132 40.5,133C 39.944,133.383 39.6107,133.883 39.5,134.5C 36.3715,131.899 35.2049,128.566 36,124.5C 37.1451,125.636 38.3117,126.636 39.5,127.5 Z"/></g>
<g><path style="opacity:1" fill="#1b4c25" d="M 39.5,127.5 C 42.8114,128.811 45.1448,131.145 46.5,134.5C 44.8955,134.228 43.2288,134.228 41.5,134.5C 40.8333,134.5 40.1667,134.5 39.5,134.5C 39.6107,133.883 39.944,133.383 40.5,133C 39.5,132 38.5,131 37.5,130C 38.0659,129.005 38.7326,128.172 39.5,127.5 Z"/></g>
<g><path style="opacity:1" fill="#26532f" d="M 31.5,110.5 C 38.2668,116.721 45.6002,122.221 53.5,127C 53.1667,127.167 52.8333,127.333 52.5,127.5C 49.6116,125.71 46.6116,124.543 43.5,124C 46.5017,126.503 49.8351,128.503 53.5,130C 44.8959,130.028 38.2293,126.362 33.5,119C 33.8333,118.667 34.1667,118.333 34.5,118C 33.5838,117.626 32.7504,117.126 32,116.5C 31.5045,114.527 31.3379,112.527 31.5,110.5 Z"/></g>
<g><path style="opacity:1" fill="#174821" d="M 42.5,96.5 C 48.7907,107.635 57.1241,117.135 67.5,125C 81.8241,135.499 96.8241,144.999 112.5,153.5C 113.526,158.079 114.859,162.579 116.5,167C 115.283,169.368 114.449,171.868 114,174.5C 110.528,169.083 108.028,163.249 106.5,157C 84.8784,147.618 65.3784,135.118 48,119.5C 42.5499,112.7 40.7166,105.033 42.5,96.5 Z"/></g>
<g><path style="opacity:1" fill="#1f4e28" d="M 104.5,173.5 C 106.857,173.337 109.19,173.503 111.5,174C 113.62,175.523 113.953,177.356 112.5,179.5C 107.432,180.039 102.766,178.705 98.5,175.5C 100.631,174.831 102.631,174.165 104.5,173.5 Z"/></g>
<g><path style="opacity:1" fill="#21502a" d="M 180.5,173.5 C 198.553,173.847 198.553,176.18 180.5,180.5C 179.167,180.167 177.833,179.833 176.5,179.5C 178.252,177.754 179.585,175.754 180.5,173.5 Z"/></g>
<g><path style="opacity:1" fill="#1a4a24" d="M 78.5,178.5 C 84.987,177.346 91.6536,177.179 98.5,178C 99.8333,178.667 101.167,179.333 102.5,180C 99.5,180.333 96.5,180.667 93.5,181C 97.749,182.126 102.082,182.792 106.5,183C 96.4509,186.037 87.1176,184.537 78.5,178.5 Z"/></g>
<g><path style="opacity:1" fill="#204f29" d="M 155.5,174.5 C 156.376,174.369 157.043,174.702 157.5,175.5C 158.875,178.373 159.875,181.373 160.5,184.5C 157.694,188.696 156.028,188.363 155.5,183.5C 155.486,181.407 156.152,179.574 157.5,178C 156.747,176.513 155.914,176.346 155,177.5C 154.53,176.423 154.697,175.423 155.5,174.5 Z"/></g>
<g><path style="opacity:1" fill="#194a23" d="M 193.5,177.5 C 200.175,177.334 206.842,177.5 213.5,178C 204.986,184.453 195.653,186.12 185.5,183C 189.918,182.792 194.251,182.126 198.5,181C 195.5,180.667 192.5,180.333 189.5,180C 191.066,179.392 192.4,178.558 193.5,177.5 Z"/></g>
<g><path style="opacity:1" fill="#1e4d27" d="M 82.5,182.5 C 79.6946,183.319 76.6946,183.819 73.5,184C 75.5951,184.556 75.7618,185.056 74,185.5C 72.8615,185.011 71.6948,184.678 70.5,184.5C 67.0257,184.253 66.359,183.253 68.5,181.5C 67.1886,180.742 66.6886,179.742 67,178.5C 72.2506,179.605 77.4172,180.938 82.5,182.5 Z"/></g>
<g><path style="opacity:1" fill="#b9c7bc" d="M 140.5,170.5 C 140.5,171.167 140.833,171.5 141.5,171.5C 141.369,172.239 141.536,172.906 142,173.5C 143.333,172.833 144.333,171.833 145,170.5C 145.466,173.312 144.966,175.979 143.5,178.5C 142.904,177.284 142.737,175.951 143,174.5C 142.148,175.571 141.315,176.571 140.5,177.5C 139.339,177.411 139.006,179.078 139.5,182.5C 140.791,182.737 141.791,182.404 142.5,181.5C 145.347,178.51 146.847,174.843 147,170.5C 147.183,173.365 147.683,176.031 148.5,178.5C 148.351,179.552 148.517,180.552 149,181.5C 149.654,180.304 150.154,180.304 150.5,181.5C 148.016,183.483 145.683,185.65 143.5,188C 144.056,188.383 144.389,188.883 144.5,189.5C 143.596,190.209 143.263,191.209 143.5,192.5C 141.396,192.799 139.396,192.466 137.5,191.5C 137.846,190.304 138.346,190.304 139,191.5C 139.658,189.892 139.158,188.725 137.5,188C 140.159,186.134 139.826,184.967 136.5,184.5C 136.962,179.481 138.296,174.814 140.5,170.5 Z"/></g>
<g><path style="opacity:1" fill="#1e4d27" d="M 140.5,177.5 C 140.989,178.995 141.655,180.329 142.5,181.5C 141.791,182.404 140.791,182.737 139.5,182.5C 139.006,179.078 139.339,177.411 140.5,177.5 Z"/></g>
<g><path style="opacity:1" fill="#214f29" d="M 225.5,178.5 C 225.611,179.117 225.944,179.617 226.5,180C 223.536,180.84 223.203,181.84 225.5,183C 222.479,183.849 219.479,184.683 216.5,185.5C 216.918,184.778 217.584,184.278 218.5,184C 215.5,183.667 212.5,183.333 209.5,183C 214.513,180.56 219.846,179.06 225.5,178.5 Z"/></g>
<g><path style="opacity:1" fill="#184a23" d="M 173.5,182.5 C 177.263,182.857 180.93,183.69 184.5,185C 180.031,187.441 175.365,187.941 170.5,186.5C 171.524,185.148 172.524,183.815 173.5,182.5 Z"/></g>
<g><path style="opacity:1" fill="#2e5936" d="M 109.5,183.5 C 110.5,183.5 111.5,183.5 112.5,183.5C 112.5,184.5 112.5,185.5 112.5,186.5C 110.692,186.509 109.025,186.009 107.5,185C 108.416,184.722 109.082,184.222 109.5,183.5 Z"/></g>
<g><path style="opacity:1" fill="#1c4c25" d="M 151.5,184.5 C 152.5,184.5 153.5,184.5 154.5,184.5C 154.627,187.245 153.46,189.245 151,190.5C 150.322,188.402 150.489,186.402 151.5,184.5 Z"/></g>
<g><path style="opacity:1" fill="#a1b2a5" d="M 226.5,183.5 C 224.241,186.409 221.241,188.076 217.5,188.5C 216.432,187.566 215.099,187.232 213.5,187.5C 214.5,186.833 215.5,186.167 216.5,185.5C 219.479,184.683 222.479,183.849 225.5,183C 223.203,181.84 223.536,180.84 226.5,180C 225.944,179.617 225.611,179.117 225.5,178.5C 226.738,177.588 228.072,177.421 229.5,178C 227.699,178.317 227.366,178.984 228.5,180C 227.177,180.816 226.511,181.983 226.5,183.5 Z"/></g>
<g><path style="opacity:1" fill="#7e9884" d="M 82.5,182.5 C 83.2891,182.783 83.9558,183.283 84.5,184C 82.2922,184.191 80.2922,184.691 78.5,185.5C 77.7611,185.369 77.0944,185.536 76.5,186C 77.4158,186.278 78.0825,186.778 78.5,187.5C 76.901,187.232 75.5676,187.566 74.5,188.5C 73.5084,188.672 72.8417,188.338 72.5,187.5C 72.9382,187.565 73.2716,187.399 73.5,187C 72.0577,186.623 71.0577,185.79 70.5,184.5C 71.6948,184.678 72.8615,185.011 74,185.5C 75.7618,185.056 75.5951,184.556 73.5,184C 76.6946,183.819 79.6946,183.319 82.5,182.5 Z"/></g>
<g><path style="opacity:1" fill="#10441b" d="M 78.5,185.5 C 79.1667,185.5 79.8333,185.5 80.5,185.5C 82.2922,186.309 84.2922,186.809 86.5,187C 84.5273,187.495 82.5273,187.662 80.5,187.5C 79.8333,187.5 79.1667,187.5 78.5,187.5C 78.0825,186.778 77.4158,186.278 76.5,186C 77.0944,185.536 77.7611,185.369 78.5,185.5 Z"/></g>
<g><path style="opacity:1" fill="#6e8c75" d="M 80.5,185.5 C 82.8333,185.5 85.1667,185.5 87.5,185.5C 87.5,186.5 87.5,187.5 87.5,188.5C 84.9407,188.802 82.6074,188.468 80.5,187.5C 82.5273,187.662 84.5273,187.495 86.5,187C 84.2922,186.809 82.2922,186.309 80.5,185.5 Z"/></g>
<g><path style="opacity:1" fill="#27542f" d="M 216.5,185.5 C 215.5,186.167 214.5,186.833 213.5,187.5C 210.865,188.729 208.199,188.729 205.5,187.5C 209.027,186.079 212.694,185.412 216.5,185.5 Z"/></g>
<g><path style="opacity:1" fill="#1f4e28" d="M 91.5,186.5 C 96.8437,186.334 102.177,186.501 107.5,187C 109.044,187.29 110.377,187.956 111.5,189C 100.854,189.829 100.854,190.329 111.5,190.5C 111.5,191.5 111.5,192.5 111.5,193.5C 103.151,194.329 95.4842,192.496 88.5,188C 89.7375,187.768 90.7375,187.268 91.5,186.5 Z"/></g>
<g><path style="opacity:1" fill="#23512c" d="M 184.5,186.5 C 190.898,186.243 197.231,186.743 203.5,188C 195.483,192.836 186.816,194.502 177.5,193C 176.833,192.333 176.167,191.667 175.5,191C 179.833,190.667 184.167,190.333 188.5,190C 185.167,189.667 181.833,189.333 178.5,189C 180.852,188.76 182.852,187.927 184.5,186.5 Z"/></g>
<g><path style="opacity:1" fill="#5c7e63" d="M 116.5,175.5 C 117.139,176.097 117.472,176.93 117.5,178C 116.915,183.197 116.248,188.363 115.5,193.5C 116.553,199.466 117.053,205.466 117,211.5C 113.89,199.545 113.723,187.545 116.5,175.5 Z"/></g>
<g><path style="opacity:1" fill="#698970" d="M 124.5,172.5 C 121.833,186.833 121.833,201.167 124.5,215.5C 119.167,201.167 119.167,186.833 124.5,172.5 Z"/></g>
<g><path style="opacity:1" fill="#739179" d="M 130.5,220.5 C 130.833,221.833 131.167,223.167 131.5,224.5C 130.21,223.942 129.377,222.942 129,221.5C 122.526,205.397 121.86,189.063 127,172.5C 127.167,173.167 127.333,173.833 127.5,174.5C 125.497,184.737 124.997,195.07 126,205.5C 126.627,210.871 128.127,215.871 130.5,220.5 Z"/></g>
<g><path style="opacity:1" fill="#3a6240" d="M 148.5,184.5 C 148.443,189.031 148.61,193.698 149,198.5C 147.207,193.964 147.04,189.298 148.5,184.5 Z"/></g>
<g><path style="opacity:1" fill="#6e8d75" d="M 89.5,190.5 C 86.7531,190.187 84.0865,190.52 81.5,191.5C 82.7276,193.176 84.0609,193.509 85.5,192.5C 85.5,192.833 85.5,193.167 85.5,193.5C 87.5,194.5 89.5,195.5 91.5,196.5C 86.0593,196.735 81.7259,194.735 78.5,190.5C 82.3147,189.192 85.9813,189.192 89.5,190.5 Z"/></g>
<g><path style="opacity:1" fill="#79957f" d="M 130.5,183.5 C 130.263,184.791 130.596,185.791 131.5,186.5C 131.5,191.5 131.5,196.5 131.5,201.5C 130.596,202.209 130.263,203.209 130.5,204.5C 129.167,197.5 129.167,190.5 130.5,183.5 Z"/></g>
<g><path style="opacity:1" fill="#1f4e28" d="M 166.5,188.5 C 177.151,192.546 176.484,194.046 164.5,193C 163.833,192.667 163.167,192.333 162.5,192C 164.093,191.051 165.426,189.885 166.5,188.5 Z"/></g>
<g><path style="opacity:1" fill="#22502b" d="M 89.5,190.5 C 90.2891,190.783 90.9558,191.283 91.5,192C 89.5273,192.495 87.5273,192.662 85.5,192.5C 84.0609,193.509 82.7276,193.176 81.5,191.5C 84.0865,190.52 86.7531,190.187 89.5,190.5 Z"/></g>
<g><path style="opacity:1" fill="#22502b" d="M 85.5,193.5 C 91.2617,193.149 96.9284,193.649 102.5,195C 98.9137,196.108 95.247,196.608 91.5,196.5C 89.5,195.5 87.5,194.5 85.5,193.5 Z"/></g>
<g><path style="opacity:1" fill="#1f4e28" d="M 159.5,192.5 C 169.359,198.363 168.692,199.863 157.5,197C 157.043,196.586 156.709,196.086 156.5,195.5C 157.34,194.265 158.34,193.265 159.5,192.5 Z"/></g>
<g><path style="opacity:1" fill="#2f5a37" d="M 201.5,190.5 C 205.308,190.163 208.974,190.663 212.5,192C 208.333,195.42 203.5,196.92 198,196.5C 195.3,196.609 192.8,196.109 190.5,195C 196.103,193.876 201.769,193.21 207.5,193C 205.167,192.667 202.833,192.333 200.5,192C 201.056,191.617 201.389,191.117 201.5,190.5 Z"/></g>
<g><path style="opacity:1" fill="#1a4a24" d="M 180.5,199.5 C 177.5,199.5 174.5,199.5 171.5,199.5C 169.938,199.267 168.605,198.6 167.5,197.5C 167.56,196.957 167.893,196.624 168.5,196.5C 172.077,197.85 175.744,198.35 179.5,198C 171.579,195.516 171.913,194.516 180.5,195C 193.689,196.245 193.689,197.745 180.5,199.5 Z"/></g>
<g><path style="opacity:1" fill="#194a23" d="M 105.5,195.5 C 107.5,195.5 109.5,195.5 111.5,195.5C 111.5,196.833 111.5,198.167 111.5,199.5C 107.89,199.598 104.557,198.764 101.5,197C 103.058,196.79 104.391,196.29 105.5,195.5 Z"/></g>
<g><path style="opacity:1" fill="#1a4b24" d="M 158.5,210.5 C 157.5,211.833 156.5,211.833 155.5,210.5C 155.047,207.348 156.047,204.848 158.5,203C 157.627,201.955 156.627,201.122 155.5,200.5C 155.47,199.503 155.97,198.836 157,198.5C 159.281,198.812 160.448,200.145 160.5,202.5C 160.138,205.28 159.472,207.946 158.5,210.5 Z"/></g>
<g><path style="opacity:1" fill="#26532e" d="M 143.5,159.5 C 139.652,163.855 136.819,168.855 135,174.5C 130.428,192.284 132.261,209.284 140.5,225.5C 137.949,223.422 136.116,220.756 135,217.5C 133.082,212.326 131.916,206.993 131.5,201.5C 131.5,196.5 131.5,191.5 131.5,186.5C 132.176,177.474 134.843,169.141 139.5,161.5C 140.605,160.4 141.938,159.733 143.5,159.5 Z"/></g>
<g><path style="opacity:1" fill="#121212" d="M 141.5,214.5 C 140.076,212.485 139.41,210.152 139.5,207.5C 140.458,207.047 141.292,206.381 142,205.5C 142.044,208.475 141.877,211.475 141.5,214.5 Z"/></g>
<g><path style="opacity:1" fill="#a1b0a4" d="M 145.5,196.5 C 147.646,198.741 149.146,201.408 150,204.5C 150.333,203.833 150.667,203.167 151,202.5C 151.569,206.361 152.402,206.361 153.5,202.5C 154.451,203.326 155.451,203.492 156.5,203C 155.001,202.162 154.668,201.329 155.5,200.5C 156.627,201.122 157.627,201.955 158.5,203C 156.047,204.848 155.047,207.348 155.5,210.5C 154.698,209.048 154.198,207.382 154,205.5C 153.148,206.571 152.315,207.571 151.5,208.5C 150.596,207.791 150.263,206.791 150.5,205.5C 149.5,205.5 148.5,205.5 147.5,205.5C 147.5,210.5 147.5,215.5 147.5,220.5C 146.86,223.648 145.86,223.981 144.5,221.5C 145.167,216.84 145.333,212.174 145,207.5C 144.262,210.991 143.429,214.325 142.5,217.5C 141.596,216.791 141.263,215.791 141.5,214.5C 141.877,211.475 142.044,208.475 142,205.5C 141.292,206.381 140.458,207.047 139.5,207.5C 138.549,206.081 138.216,204.415 138.5,202.5C 142.798,201.463 143.131,199.963 139.5,198C 140.711,196.887 140.711,195.72 139.5,194.5C 140.723,193.386 142.056,193.219 143.5,194C 142.833,194.333 142.167,194.667 141.5,195C 142.745,195.791 144.078,196.291 145.5,196.5 Z"/></g>
<g><path style="opacity:1" fill="#090909" d="M 151.5,208.5 C 151.931,213.207 150.598,217.207 147.5,220.5C 147.5,215.5 147.5,210.5 147.5,205.5C 148.5,205.5 149.5,205.5 150.5,205.5C 150.263,206.791 150.596,207.791 151.5,208.5 Z"/></g>
<g><path style="opacity:1" fill="#c3c3c3" d="M 80.5,208.5 C 87.4833,209.102 87.8167,209.769 81.5,210.5C 81.5,211.5 81.5,212.5 81.5,213.5C 86.6945,213.942 86.6945,214.942 81.5,216.5C 83.1667,217.167 84.8333,217.833 86.5,218.5C 84.3052,219.769 82.1385,219.769 80,218.5C 79.2534,215.076 79.42,211.743 80.5,208.5 Z"/></g>
<g><path style="opacity:1" fill="#dadada" d="M 96.5,210.5 C 98.6282,209.371 100.961,209.204 103.5,210C 101.972,212.999 100.805,216.165 100,219.5C 99.502,216.518 99.3354,213.518 99.5,210.5C 98.5,210.5 97.5,210.5 96.5,210.5 Z"/></g>
<g><path style="opacity:1" fill="#d1d1d1" d="M 188.5,208.5 C 194.153,208.944 195.986,211.944 194,217.5C 188.175,221.016 185.175,219.35 185,212.5C 186.032,210.973 187.199,209.64 188.5,208.5 Z"/></g>
<g><path style="opacity:1" fill="#181818" d="M 188.5,210.5 C 192.707,210.694 194.04,212.694 192.5,216.5C 186.344,217.946 185.011,215.946 188.5,210.5 Z"/></g>
<g><path style="opacity:1" fill="#b2c1b5" d="M 131.5,201.5 C 131.916,206.993 133.082,212.326 135,217.5C 136.116,220.756 137.949,223.422 140.5,225.5C 140.631,226.239 140.464,226.906 140,227.5C 137.416,225.326 135.582,222.659 134.5,219.5C 132.158,214.801 130.825,209.801 130.5,204.5C 130.263,203.209 130.596,202.209 131.5,201.5 Z"/></g>
<g><path style="opacity:1" fill="#1f1f1f" d="M 144.5,221.5 C 143.326,220.486 142.66,219.153 142.5,217.5C 143.429,214.325 144.262,210.991 145,207.5C 145.333,212.174 145.167,216.84 144.5,221.5 Z"/></g>
<g><path style="opacity:1" fill="#d0d0d0" d="M 197.5,208.5 C 202.493,210.538 202.827,213.371 198.5,217C 199.938,217.219 201.271,217.719 202.5,218.5C 200.604,219.466 198.604,219.799 196.5,219.5C 197.143,216.675 198.477,214.175 200.5,212C 200.167,211.5 199.833,211 199.5,210.5C 195.484,212.091 194.817,211.425 197.5,208.5 Z"/></g>
<g><path style="opacity:1" fill="#d2d2d2" d="M 89.5,208.5 C 91.6648,208.116 93.3315,208.783 94.5,210.5C 93.0048,210.478 91.3381,210.811 89.5,211.5C 91.1792,212.782 93.0126,213.782 95,214.5C 95.339,218.487 93.5057,219.987 89.5,219C 88.8333,218.333 88.1667,217.667 87.5,217C 89.5269,217.498 91.5269,217.331 93.5,216.5C 91.6136,215.594 89.7803,214.594 88,213.5C 87.3872,211.505 87.8872,209.838 89.5,208.5 Z"/></g>
<g><path style="opacity:1" fill="#91a895" d="M 132.5,220.5 C 131.833,220.5 131.5,220.167 131.5,219.5C 124.713,202.12 124.88,184.787 132,167.5C 127.192,185.149 127.358,202.815 132.5,220.5 Z"/></g>
<g><path style="opacity:1" fill="#c9c9c9" d="M 178.5,209.5 C 184.328,210.297 184.995,212.797 180.5,217C 181.624,217.249 182.624,217.749 183.5,218.5C 181.5,219.833 179.5,219.833 177.5,218.5C 179.261,216.747 180.594,214.747 181.5,212.5C 181.167,211.833 180.833,211.167 180.5,210.5C 178.114,211.988 177.448,211.655 178.5,209.5 Z"/></g>
<g><path style="opacity:1" fill="#c7c7c7" d="M 103.5,217.5 C 106.001,217.511 106.168,218.178 104,219.5C 103.536,218.906 103.369,218.239 103.5,217.5 Z"/></g>
<g><path style="opacity:1" fill="#d3d3d3" d="M 203.5,209.5 C 208.507,208.672 210.841,210.838 210.5,216C 209.281,219.345 207.114,220.179 204,218.5C 203.333,217.833 203.333,217.167 204,216.5C 205.356,217.38 206.856,217.714 208.5,217.5C 208.5,216.5 208.5,215.5 208.5,214.5C 205.104,214.367 204.771,213.367 207.5,211.5C 206.609,210.41 205.609,210.41 204.5,211.5C 203.702,211.043 203.369,210.376 203.5,209.5 Z"/></g>
<g><path style="opacity:1" fill="#a0b0a3" d="M 171.5,199.5 C 174.5,199.5 177.5,199.5 180.5,199.5C 178.5,200.167 176.5,200.833 174.5,201.5C 173.5,201.5 172.5,201.5 171.5,201.5C 170.193,213.923 166.027,225.257 159,235.5C 157.549,237.464 155.716,238.797 153.5,239.5C 152.761,239.631 152.094,239.464 151.5,239C 162.476,228.593 168.143,215.759 168.5,200.5C 169.791,200.737 170.791,200.404 171.5,199.5 Z"/></g>
<g><path style="opacity:1" fill="#2d5935" d="M 159.5,165.5 C 150.811,157.701 144.478,159.367 140.5,170.5C 138.296,174.814 136.962,179.481 136.5,184.5C 135.407,196.548 136.907,208.215 141,219.5C 145.056,228.338 150.723,229.671 158,223.5C 158.507,224.996 158.007,226.163 156.5,227C 150.882,230.81 146.049,229.977 142,224.5C 136.644,215.087 134.144,204.92 134.5,194C 133.874,183.013 136.374,172.846 142,163.5C 148.834,156.392 154.668,157.059 159.5,165.5 Z"/></g>
<g><path style="opacity:1" fill="#a3b6a7" d="M 143.5,231.5 C 145.308,231.491 146.975,231.991 148.5,233C 144.815,233.914 145.148,234.581 149.5,235C 147.5,235.333 145.5,235.667 143.5,236C 148.508,236.869 148.175,237.536 142.5,238C 143.5,238.333 144.5,238.667 145.5,239C 142.788,239.826 140.455,239.326 138.5,237.5C 135.896,235.4 133.396,233.067 131,230.5C 130.333,229.833 130.333,229.167 131,228.5C 133.064,231.274 135.564,233.107 138.5,234C 131.92,226.158 132.254,225.825 139.5,233C 141.044,234.187 142.711,234.52 144.5,234C 139.116,231.628 135.616,227.795 134,222.5C 136.4,226.402 139.566,229.402 143.5,231.5 Z"/></g>
<g><path style="opacity:1" fill="#f1f1f0" d="M 189.5,250.5 C 186.771,257.689 184.437,265.022 182.5,272.5C 181.878,275.776 179.878,277.109 176.5,276.5C 175.646,272.348 176.313,268.348 178.5,264.5C 179.586,258.328 182.253,252.995 186.5,248.5C 187.518,249.193 188.518,249.859 189.5,250.5 Z"/></g>
<g><path style="opacity:1" fill="#f4f4f4" d="M 127.5,252.5 C 125.592,259.221 123.258,265.887 120.5,272.5C 119.211,275.322 117.211,275.989 114.5,274.5C 113.391,272.615 112.557,270.615 112,268.5C 110.961,270.746 109.794,272.913 108.5,275C 107.207,275.49 105.873,275.657 104.5,275.5C 104.529,267.25 106.862,259.75 111.5,253C 112.793,252.51 114.127,252.343 115.5,252.5C 115.699,254.96 116.365,257.293 117.5,259.5C 118.702,256.93 120.035,254.43 121.5,252C 123.861,249.891 125.861,250.058 127.5,252.5 Z"/></g>
<g><path style="opacity:1" fill="#2e2d1d" d="M 189.5,250.5 C 190.391,251.261 191.058,252.261 191.5,253.5C 190.296,256.739 188.962,259.906 187.5,263C 187.728,263.399 188.062,263.565 188.5,263.5C 188.167,264.167 187.833,264.833 187.5,265.5C 186.044,268.614 184.878,271.948 184,275.5C 183.768,274.263 183.268,273.263 182.5,272.5C 184.437,265.022 186.771,257.689 189.5,250.5 Z"/></g>
<g><path style="opacity:1" fill="#f5f5f5" d="M 158.5,266.5 C 157.596,267.209 157.263,268.209 157.5,269.5C 155.925,275.076 152.258,278.076 146.5,278.5C 145.023,279.158 144.023,280.825 143.5,283.5C 141.955,284.452 140.288,284.785 138.5,284.5C 138.5,282.5 138.5,280.5 138.5,278.5C 139.789,275.24 141.122,271.906 142.5,268.5C 142.549,265.901 143.549,263.734 145.5,262C 148.083,260.569 150.75,259.402 153.5,258.5C 157.993,259.177 159.66,261.844 158.5,266.5 Z"/></g>
<g><path style="opacity:1" fill="#f0f0f0" d="M 139.5,261.5 C 140.176,267.993 137.176,271.16 130.5,271C 131,271.5 131.5,272 132,272.5C 133.726,271.424 135.559,271.257 137.5,272C 138.684,273.145 138.684,274.312 137.5,275.5C 134.201,276.376 130.868,276.543 127.5,276C 125.393,274.736 124.393,272.903 124.5,270.5C 125.499,267.838 126.499,265.172 127.5,262.5C 129.974,260.514 132.807,259.181 136,258.5C 137.642,258.978 138.809,259.978 139.5,261.5 Z"/></g>
<g><path style="opacity:1" fill="#f8f8f8" d="M 175.5,263.5 C 174.838,267.466 174.505,271.466 174.5,275.5C 170.257,274.903 165.924,274.903 161.5,275.5C 160.5,275.167 159.833,274.5 159.5,273.5C 159.5,271.833 159.5,270.167 159.5,268.5C 161.316,261.856 165.649,259.022 172.5,260C 174.063,260.759 175.063,261.926 175.5,263.5 Z"/></g>
<g><path style="opacity:1" fill="#eeeeee" d="M 93.5,260.5 C 96.5184,260.335 99.5184,260.502 102.5,261C 105.15,263.082 104.816,264.749 101.5,266C 97.1667,266.667 92.8333,266.667 88.5,266C 88.1667,265.667 87.8333,265.333 87.5,265C 89.6838,263.637 91.6838,262.137 93.5,260.5 Z"/></g>
<g><path style="opacity:1" fill="#eaeaea" d="M 204.5,264.5 C 199.729,266.318 194.729,266.985 189.5,266.5C 188.508,266.672 187.842,266.338 187.5,265.5C 187.833,264.833 188.167,264.167 188.5,263.5C 192.702,260.639 197.369,259.806 202.5,261C 203.823,261.816 204.489,262.983 204.5,264.5 Z"/></g>
<g><path style="opacity:1" fill="#2d2b1c" d="M 127.5,252.5 C 127.918,253.222 128.584,253.722 129.5,254C 129.157,256.65 128.49,259.484 127.5,262.5C 126.499,265.172 125.499,267.838 124.5,270.5C 123.582,272.82 122.248,274.987 120.5,277C 119.167,277.667 117.833,277.667 116.5,277C 118.329,276.727 119.829,275.893 121,274.5C 121.692,273.563 121.525,272.897 120.5,272.5C 123.258,265.887 125.592,259.221 127.5,252.5 Z"/></g>
<g><path style="opacity:1" fill="#2e2e2c" d="M 131.5,265.5 C 133.337,265.639 133.67,266.306 132.5,267.5C 131.702,267.043 131.369,266.376 131.5,265.5 Z"/></g>
<g><path style="opacity:1" fill="#323024" d="M 175.5,263.5 C 176.609,263.557 177.609,263.89 178.5,264.5C 176.313,268.348 175.646,272.348 176.5,276.5C 174.777,277.807 172.943,277.807 171,276.5C 168.757,278.282 166.257,278.782 163.5,278C 164.5,277.667 165.5,277.333 166.5,277C 164.618,276.802 162.952,276.302 161.5,275.5C 165.924,274.903 170.257,274.903 174.5,275.5C 174.505,271.466 174.838,267.466 175.5,263.5 Z"/></g>
<g><path style="opacity:1" fill="#2e2c0f" d="M 90.5,268.5 C 94.6463,267.353 98.9796,267.186 103.5,268C 99.1891,269.643 94.8557,269.81 90.5,268.5 Z"/></g>
<g><path style="opacity:1" fill="#1c1c1b" d="M 150.5,265.5 C 151.514,268.204 150.681,270.537 148,272.5C 148.237,270.011 149.071,267.678 150.5,265.5 Z"/></g>
<g><path style="opacity:1" fill="#2c2a17" d="M 204.5,264.5 C 206.656,264.872 206.656,265.872 204.5,267.5C 200.305,269.233 195.971,269.733 191.5,269C 190.244,268.583 189.577,267.75 189.5,266.5C 194.729,266.985 199.729,266.318 204.5,264.5 Z"/></g>
<g><path style="opacity:1" fill="#2f2f2e" d="M 167.5,266.5 C 168.118,268.664 167.118,270.33 164.5,271.5C 163.479,270.998 163.312,270.332 164,269.5C 165.518,268.837 166.685,267.837 167.5,266.5 Z"/></g>
<g><path style="opacity:1" fill="#302e1f" d="M 139.5,261.5 C 140.869,263.691 141.869,266.025 142.5,268.5C 141.122,271.906 139.789,275.24 138.5,278.5C 135.796,278.492 132.796,278.325 129.5,278C 132.623,277.794 135.623,277.127 138.5,276C 138.272,275.601 137.938,275.435 137.5,275.5C 138.684,274.312 138.684,273.145 137.5,272C 135.559,271.257 133.726,271.424 132,272.5C 131.5,272 131,271.5 130.5,271C 137.176,271.16 140.176,267.993 139.5,261.5 Z"/></g>
<g><path style="opacity:1" fill="#85836d" d="M 158.5,266.5 C 158.328,267.492 158.662,268.158 159.5,268.5C 159.5,270.167 159.5,271.833 159.5,273.5C 158.833,273.833 158.167,274.167 157.5,274.5C 158.494,272.666 158.494,270.999 157.5,269.5C 157.263,268.209 157.596,267.209 158.5,266.5 Z"/></g>
<g><path style="opacity:1" fill="#373514" d="M 157.5,269.5 C 158.494,270.999 158.494,272.666 157.5,274.5C 155.751,278.887 152.417,281.054 147.5,281C 146.782,282.987 145.782,284.821 144.5,286.5C 144.167,286.333 143.833,286.167 143.5,286C 144.991,283.692 145.991,281.192 146.5,278.5C 152.258,278.076 155.925,275.076 157.5,269.5 Z"/></g>
</svg>
